<svg width="25" height="20" viewBox="0 0 25 20" fill="none" xmlns="http://www.w3.org/2000/svg">
<path d="M24.5 4C24.5 1.8 22.7 0 20.5 0H4.5C2.3 0 0.5 1.8 0.5 4V16C0.5 18.2 2.3 20 4.5 20H20.5C22.7 20 24.5 18.2 24.5 16V4ZM6.5 4C7.6 4 8.5 4.9 8.5 6C8.5 7.1 7.6 8 6.5 8C5.4 8 4.5 7.1 4.5 6C4.5 4.9 5.4 4 6.5 4ZM22.5 16C22.5 17.1 21.6 18 20.5 18H4.9C4 18 3.6 16.9 4.2 16.3L7.8 12.7C8.2 12.3 8.8 12.3 9.2 12.7L9.8 13.3C10.2 13.7 10.8 13.7 11.2 13.3L17.8 6.7C18.2 6.3 18.8 6.3 19.2 6.7L22.2 9.7C22.4 9.9 22.5 10.1 22.5 10.4V16Z" fill="#E9E9E9"/>
</svg>
