<svg width="20" height="24" viewBox="0 0 20 24" fill="none" xmlns="http://www.w3.org/2000/svg">
<path d="M3 3C3 2.20435 3.31607 1.44129 3.87868 0.87868C4.44129 0.31607 5.20435 0 6 0H11.379C11.9755 0.000525156 12.5474 0.237923 12.969 0.66L18.8415 6.531C19.263 6.9528 19.4999 7.52468 19.5 8.121V18C19.5 18.7956 19.1839 19.5587 18.6213 20.1213C18.0587 20.6839 17.2956 21 16.5 21H6C5.20435 21 4.44129 20.6839 3.87868 20.1213C3.31607 19.5587 3 18.7956 3 18V3ZM6 1.5C5.60218 1.5 5.22064 1.65804 4.93934 1.93934C4.65804 2.22064 4.5 2.60218 4.5 3V18C4.5 18.3978 4.65804 18.7794 4.93934 19.0607C5.22064 19.342 5.60218 19.5 6 19.5H16.5C16.8978 19.5 17.2794 19.342 17.5607 19.0607C17.842 18.7794 18 18.3978 18 18V9H12.75C12.1533 9 11.581 8.76295 11.159 8.34099C10.7371 7.91903 10.5 7.34674 10.5 6.75V1.5H6ZM12 1.8105V6.75C12 6.94891 12.079 7.13968 12.2197 7.28033C12.3603 7.42098 12.5511 7.5 12.75 7.5H17.6895L12 1.8105ZM0 4.5C0 4.10218 0.158036 3.72064 0.43934 3.43934C0.720645 3.15804 1.10218 3 1.5 3V18C1.5 19.1935 1.97411 20.3381 2.81802 21.182C3.66193 22.0259 4.80653 22.5 6 22.5H16.5C16.5 22.8978 16.342 23.2794 16.0607 23.5607C15.7794 23.842 15.3978 24 15 24H5.91C4.34257 24 2.83934 23.3773 1.731 22.269C0.622659 21.1607 0 19.6574 0 18.09V4.5Z" fill="#7265F1"/>
</svg>
