<svg width="19" height="19" viewBox="0 0 19 19" fill="none" xmlns="http://www.w3.org/2000/svg">
<path d="M16.625 7.07766C16.6168 7.00494 16.6008 6.93329 16.5775 6.86391V6.79266C16.5394 6.71126 16.4887 6.63644 16.4271 6.571V6.571L11.6771 1.821C11.6116 1.75942 11.5368 1.70864 11.4554 1.67058C11.4318 1.66722 11.4078 1.66722 11.3842 1.67058C11.3037 1.62446 11.2149 1.59485 11.1229 1.5835H7.91667C7.28678 1.5835 6.68269 1.83372 6.23729 2.27912C5.79189 2.72452 5.54167 3.32861 5.54167 3.9585V4.75016H4.75C4.12011 4.75016 3.51602 5.00039 3.07062 5.44578C2.62522 5.89118 2.375 6.49527 2.375 7.12516V15.0418C2.375 15.6717 2.62522 16.2758 3.07062 16.7212C3.51602 17.1666 4.12011 17.4168 4.75 17.4168H11.0833C11.7132 17.4168 12.3173 17.1666 12.7627 16.7212C13.2081 16.2758 13.4583 15.6717 13.4583 15.0418V14.2502H14.25C14.8799 14.2502 15.484 13.9999 15.9294 13.5545C16.3748 13.1091 16.625 12.5051 16.625 11.8752V7.12516C16.625 7.12516 16.625 7.12516 16.625 7.07766ZM11.875 4.28308L13.9254 6.3335H12.6667C12.4567 6.3335 12.2553 6.25009 12.1069 6.10162C11.9584 5.95316 11.875 5.75179 11.875 5.54183V4.28308ZM11.875 15.0418C11.875 15.2518 11.7916 15.4532 11.6431 15.6016C11.4947 15.7501 11.2933 15.8335 11.0833 15.8335H4.75C4.54004 15.8335 4.33867 15.7501 4.19021 15.6016C4.04174 15.4532 3.95833 15.2518 3.95833 15.0418V7.12516C3.95833 6.9152 4.04174 6.71384 4.19021 6.56537C4.33867 6.4169 4.54004 6.3335 4.75 6.3335H5.54167V11.8752C5.54167 12.5051 5.79189 13.1091 6.23729 13.5545C6.68269 13.9999 7.28678 14.2502 7.91667 14.2502H11.875V15.0418ZM15.0417 11.8752C15.0417 12.0851 14.9583 12.2865 14.8098 12.435C14.6613 12.5834 14.46 12.6668 14.25 12.6668H7.91667C7.7067 12.6668 7.50534 12.5834 7.35687 12.435C7.20841 12.2865 7.125 12.0851 7.125 11.8752V3.9585C7.125 3.74853 7.20841 3.54717 7.35687 3.3987C7.50534 3.25024 7.7067 3.16683 7.91667 3.16683H10.2917V5.54183C10.2917 6.17172 10.5419 6.77581 10.9873 7.22121C11.4327 7.66661 12.0368 7.91683 12.6667 7.91683H15.0417V11.8752Z" fill="#FF000C"/>
</svg>
