<svg width="11" height="12" viewBox="0 0 11 12" fill="none" xmlns="http://www.w3.org/2000/svg">
<path d="M4.7485 0.790994C4.95499 0.605469 5.22278 0.502838 5.50037 0.502838C5.77797 0.502838 6.04576 0.605469 6.25225 0.790994L10.3773 4.49749C10.4945 4.60296 10.5883 4.73192 10.6525 4.87598C10.7168 5.02005 10.75 5.17601 10.75 5.33374V10.625C10.75 10.9234 10.6315 11.2095 10.4205 11.4205C10.2095 11.6315 9.92337 11.75 9.625 11.75H7.75C7.45163 11.75 7.16548 11.6315 6.9545 11.4205C6.74353 11.2095 6.625 10.9234 6.625 10.625V7.99999C6.625 7.90054 6.58549 7.80515 6.51517 7.73483C6.44484 7.6645 6.34946 7.62499 6.25 7.62499H4.75C4.65054 7.62499 4.55516 7.6645 4.48483 7.73483C4.41451 7.80515 4.375 7.90054 4.375 7.99999V10.625C4.375 10.9234 4.25647 11.2095 4.0455 11.4205C3.83452 11.6315 3.54837 11.75 3.25 11.75H1.375C1.07663 11.75 0.790483 11.6315 0.579505 11.4205C0.368526 11.2095 0.25 10.9234 0.25 10.625V5.33374C0.25 5.01499 0.385 4.71124 0.6235 4.49749L4.7485 0.790994ZM5.7505 1.34899C5.68168 1.28722 5.59247 1.25305 5.5 1.25305C5.40753 1.25305 5.31832 1.28722 5.2495 1.34899L1.1245 5.05549C1.08542 5.09057 1.05415 5.13347 1.0327 5.1814C1.01125 5.22933 1.00011 5.28123 1 5.33374V10.625C1 10.7245 1.03951 10.8198 1.10984 10.8902C1.18016 10.9605 1.27554 11 1.375 11H3.25C3.34946 11 3.44484 10.9605 3.51516 10.8902C3.58549 10.8198 3.625 10.7245 3.625 10.625V7.99999C3.625 7.70162 3.74353 7.41548 3.9545 7.2045C4.16548 6.99352 4.45163 6.87499 4.75 6.87499H6.25C6.54837 6.87499 6.83452 6.99352 7.0455 7.2045C7.25647 7.41548 7.375 7.70162 7.375 7.99999V10.625C7.375 10.7245 7.41451 10.8198 7.48483 10.8902C7.55516 10.9605 7.65054 11 7.75 11H9.625C9.72446 11 9.81984 10.9605 9.89017 10.8902C9.96049 10.8198 10 10.7245 10 10.625V5.33374C9.99989 5.28123 9.98875 5.22933 9.9673 5.1814C9.94585 5.13347 9.91458 5.09057 9.8755 5.05549L5.7505 1.34899Z" fill="#E5E5E5"/>
</svg>
