<svg width="13" height="13" viewBox="0 0 13 13" fill="none" xmlns="http://www.w3.org/2000/svg">
<path d="M4 3.375H9M10.875 5.875V11.75C10.875 11.8495 10.8355 11.9448 10.7652 12.0152C10.6948 12.0855 10.5995 12.125 10.5 12.125H2.5C2.40054 12.125 2.30516 12.0855 2.23483 12.0152C2.16451 11.9448 2.125 11.8495 2.125 11.75V5.875H10.875ZM5.25 9.625V5.875V9.625ZM7.75 9.625V5.875V9.625ZM12.125 3.375H9H12.125ZM0.875 3.375H4H0.875ZM4 3.375V1.25C4 1.15054 4.03951 1.05516 4.10983 0.984835C4.18016 0.914509 4.27554 0.875 4.375 0.875H8.625C8.72446 0.875 8.81984 0.914509 8.89017 0.984835C8.96049 1.05516 9 1.15054 9 1.25V3.375H4Z" stroke="#E5E5E5" stroke-linecap="round" stroke-linejoin="round"/>
</svg>
