<svg width="19" height="19" viewBox="0 0 19 19" fill="none" xmlns="http://www.w3.org/2000/svg">
<path d="M9.50017 5.54183C9.2902 5.54183 9.08884 5.62524 8.94037 5.7737C8.79191 5.92217 8.7085 6.12353 8.7085 6.3335V9.50016C8.7085 9.71013 8.79191 9.91149 8.94037 10.06C9.08884 10.2084 9.2902 10.2918 9.50017 10.2918C9.71013 10.2918 9.91149 10.2084 10.06 10.06C10.2084 9.91149 10.2918 9.71013 10.2918 9.50016V6.3335C10.2918 6.12353 10.2084 5.92217 10.06 5.7737C9.91149 5.62524 9.71013 5.54183 9.50017 5.54183ZM10.2285 12.366C10.2112 12.3155 10.1872 12.2676 10.1572 12.2235L10.0622 12.1047C9.95092 11.9949 9.80955 11.9205 9.65598 11.8909C9.5024 11.8613 9.3435 11.8779 9.19933 11.9385C9.10339 11.9786 9.01503 12.0348 8.93808 12.1047C8.86471 12.1787 8.80666 12.2664 8.76726 12.3629C8.72787 12.4594 8.7079 12.5626 8.7085 12.6668C8.70975 12.7703 8.73127 12.8725 8.77183 12.9677C8.80739 13.0659 8.86411 13.1551 8.93799 13.229C9.01187 13.3029 9.10109 13.3596 9.19933 13.3952C9.2941 13.437 9.39656 13.4587 9.50017 13.4587C9.60377 13.4587 9.70624 13.437 9.801 13.3952C9.89924 13.3596 9.98846 13.3029 10.0623 13.229C10.1362 13.1551 10.1929 13.0659 10.2285 12.9677C10.2691 12.8725 10.2906 12.7703 10.2918 12.6668C10.2957 12.6141 10.2957 12.5612 10.2918 12.5085C10.2782 12.458 10.2568 12.4099 10.2285 12.366V12.366ZM9.50017 1.5835C7.9344 1.5835 6.40379 2.0478 5.1019 2.9177C3.80001 3.78759 2.78531 5.024 2.18612 6.47059C1.58693 7.91717 1.43015 9.50894 1.73562 11.0446C2.04108 12.5803 2.79507 13.9909 3.90224 15.0981C5.0094 16.2053 6.42002 16.9592 7.9557 17.2647C9.49138 17.5702 11.0832 17.4134 12.5297 16.8142C13.9763 16.215 15.2127 15.2003 16.0826 13.8984C16.9525 12.5965 17.4168 11.0659 17.4168 9.50016C17.4168 8.46053 17.2121 7.43108 16.8142 6.47059C16.4164 5.51009 15.8332 4.63736 15.0981 3.90223C14.363 3.1671 13.4902 2.58397 12.5297 2.18612C11.5692 1.78827 10.5398 1.5835 9.50017 1.5835V1.5835ZM9.50017 15.8335C8.24755 15.8335 7.02307 15.4621 5.98155 14.7661C4.94004 14.0702 4.12828 13.0811 3.64893 11.9238C3.16957 10.7666 3.04415 9.49314 3.28853 8.26459C3.5329 7.03604 4.13609 5.90755 5.02182 5.02182C5.90756 4.13609 7.03605 3.5329 8.26459 3.28852C9.49314 3.04415 10.7666 3.16957 11.9238 3.64893C13.0811 4.12828 14.0702 4.94004 14.7661 5.98155C15.4621 7.02306 15.8335 8.24755 15.8335 9.50016C15.8335 11.1799 15.1662 12.7908 13.9785 13.9785C12.7908 15.1662 11.1799 15.8335 9.50017 15.8335V15.8335Z" fill="#FF000C"/>
</svg>
