<svg width="24" height="24" viewBox="0 0 24 24" fill="none" xmlns="http://www.w3.org/2000/svg">
<path d="M12 0.75C5.7975 0.75 0.75 5.7975 0.75 12C0.75 18.2025 5.7975 23.25 12 23.25C18.2025 23.25 23.25 18.2025 23.25 12C23.25 5.7975 18.2025 0.75 12 0.75ZM12 2.625C17.1891 2.625 21.375 6.81094 21.375 12C21.3773 14.2443 20.5725 16.4147 19.1075 18.1149C17.6425 19.8152 15.615 20.932 13.395 21.2616V14.7338H16.065L16.4841 12.0216H13.395V10.5403C13.395 9.41531 13.7653 8.415 14.8181 8.415H16.5103V6.04875C16.2131 6.00844 15.5841 5.92125 14.3953 5.92125C11.9128 5.92125 10.4578 7.23188 10.4578 10.2188V12.0216H7.90594V14.7338H10.4578V21.2381C8.26852 20.8778 6.27866 19.7508 4.84377 18.0585C3.40889 16.3661 2.62246 14.2188 2.625 12C2.625 6.81094 6.81094 2.625 12 2.625Z" fill="#7265F1"/>
</svg>
