<svg width="54" height="54" viewBox="0 0 54 54" fill="none" xmlns="http://www.w3.org/2000/svg">
<circle cx="27" cy="27" r="27" fill="white"/>
<path d="M41 27C41 19.268 34.732 13 27 13C19.268 13 13 19.268 13 27C13 33.9877 18.1196 39.7796 24.8125 40.8299V31.0469H21.2578V27H24.8125V23.9156C24.8125 20.4069 26.9027 18.4688 30.1005 18.4688C31.6318 18.4688 33.2344 18.7422 33.2344 18.7422V22.1875H31.4691C29.73 22.1875 29.1875 23.2668 29.1875 24.375V27H33.0703L32.4496 31.0469H29.1875V40.8299C35.8804 39.7796 41 33.9877 41 27Z" fill="#1877F2"/>
<path d="M32.4496 31.0469L33.0703 27H29.1875V24.375C29.1875 23.2679 29.73 22.1875 31.4691 22.1875H33.2344V18.7422C33.2344 18.7422 31.6323 18.4688 30.1005 18.4688C26.9027 18.4688 24.8125 20.4069 24.8125 23.9156V27H21.2578V31.0469H24.8125V40.8299C26.262 41.0567 27.738 41.0567 29.1875 40.8299V31.0469H32.4496Z" fill="white"/>
</svg>
