<svg width="48" height="48" viewBox="0 0 48 48" fill="none" xmlns="http://www.w3.org/2000/svg">
<g clip-path="url(#clip0_2026_41384)">
<path d="M43.7812 14.1562H42.375L12.6562 11.3438L5.625 18.375L4.21875 42.2812H42.375C45.4687 42.2812 48 39.7499 48 36.6562V18.375C48 16.0406 46.1157 14.1562 43.7812 14.1562Z" fill="url(#paint0_linear_2026_41384)"/>
<path d="M39.5625 8.53125H14.2313L13.8937 7.60312C13.5 6.47803 12.4312 5.71875 11.25 5.71875H2.8125C1.26562 5.71875 0 6.98438 0 8.53125V38.0625C0 40.4427 1.94203 42.2812 4.21875 42.2812C6.55322 42.2812 8.4375 40.3967 8.4375 38.0625V18.375C8.4375 16.0406 10.3218 14.1562 12.6562 14.1562H42.375V11.3438C42.375 9.79688 41.1094 8.53125 39.5625 8.53125Z" fill="url(#paint1_linear_2026_41384)"/>
<circle cx="22.3938" cy="21.9213" r="3.64001" fill="#BED8FF"/>
<path d="M20.3444 28.4233C21.1393 27.5365 22.5282 27.5365 23.323 28.4233L28.5787 34.2868C29.7331 35.5748 28.819 37.6217 27.0894 37.6217H16.5781C14.8485 37.6217 13.9344 35.5748 15.0888 34.2868L20.3444 28.4233Z" fill="#BED8FF"/>
<path d="M29.5049 25.3004C30.2997 24.4143 31.6877 24.4143 32.4825 25.3004L40.5418 34.2852C41.697 35.573 40.783 37.6206 39.053 37.6206H22.9343C21.2044 37.6206 20.2904 35.573 21.4455 34.2852L29.5049 25.3004Z" fill="#BED8FF"/>
</g>
<defs>
<linearGradient id="paint0_linear_2026_41384" x1="26.1094" y1="42.2812" x2="26.1094" y2="11.3438" gradientUnits="userSpaceOnUse">
<stop stop-color="#03A6F1"/>
<stop offset="1" stop-color="#7CD6FF"/>
</linearGradient>
<linearGradient id="paint1_linear_2026_41384" x1="21.1875" y1="42.2812" x2="21.1875" y2="5.71875" gradientUnits="userSpaceOnUse">
<stop stop-color="#AFCFFF"/>
<stop offset="1" stop-color="#E0EDFF"/>
</linearGradient>
<clipPath id="clip0_2026_41384">
<rect width="48" height="48" fill="white"/>
</clipPath>
</defs>
</svg>
