<svg width="26" height="26" viewBox="0 0 26 26" fill="none" xmlns="http://www.w3.org/2000/svg">
<path d="M22.7498 11.3748H21.6665V10.2915C21.6665 10.0042 21.5524 9.72864 21.3492 9.52547C21.146 9.32231 20.8705 9.20817 20.5832 9.20817C20.2959 9.20817 20.0203 9.32231 19.8171 9.52547C19.614 9.72864 19.4998 10.0042 19.4998 10.2915V11.3748H18.4165C18.1292 11.3748 17.8536 11.489 17.6505 11.6921C17.4473 11.8953 17.3332 12.1709 17.3332 12.4582C17.3332 12.7455 17.4473 13.021 17.6505 13.2242C17.8536 13.4274 18.1292 13.5415 18.4165 13.5415H19.4998V14.6248C19.4998 14.9122 19.614 15.1877 19.8171 15.3909C20.0203 15.594 20.2959 15.7082 20.5832 15.7082C20.8705 15.7082 21.146 15.594 21.3492 15.3909C21.5524 15.1877 21.6665 14.9122 21.6665 14.6248V13.5415H22.7498C23.0372 13.5415 23.3127 13.4274 23.5159 13.2242C23.719 13.021 23.8332 12.7455 23.8332 12.4582C23.8332 12.1709 23.719 11.8953 23.5159 11.6921C23.3127 11.489 23.0372 11.3748 22.7498 11.3748ZM14.4082 13.2382C14.9862 12.7378 15.4499 12.119 15.7676 11.4236C16.0854 10.7283 16.2498 9.97269 16.2498 9.20817C16.2498 7.77158 15.6792 6.39383 14.6633 5.37801C13.6475 4.36219 12.2698 3.7915 10.8332 3.7915C9.39658 3.7915 8.01883 4.36219 7.00301 5.37801C5.98719 6.39383 5.4165 7.77158 5.4165 9.20817C5.4165 9.97269 5.58096 10.7283 5.89872 11.4236C6.21649 12.119 6.68013 12.7378 7.25817 13.2382C5.74166 13.9249 4.45501 15.0338 3.55207 16.4324C2.64912 17.831 2.1681 19.4601 2.1665 21.1248C2.1665 21.4122 2.28064 21.6877 2.4838 21.8909C2.68697 22.094 2.96252 22.2082 3.24984 22.2082C3.53716 22.2082 3.81271 22.094 4.01587 21.8909C4.21903 21.6877 4.33317 21.4122 4.33317 21.1248C4.33317 19.4009 5.01799 17.7476 6.23698 16.5286C7.45596 15.3097 9.10926 14.6248 10.8332 14.6248C12.5571 14.6248 14.2104 15.3097 15.4294 16.5286C16.6484 17.7476 17.3332 19.4009 17.3332 21.1248C17.3332 21.4122 17.4473 21.6877 17.6505 21.8909C17.8536 22.094 18.1292 22.2082 18.4165 22.2082C18.7038 22.2082 18.9794 22.094 19.1825 21.8909C19.3857 21.6877 19.4998 21.4122 19.4998 21.1248C19.4982 19.4601 19.0172 17.831 18.1143 16.4324C17.2113 15.0338 15.9247 13.9249 14.4082 13.2382V13.2382ZM10.8332 12.4582C10.1904 12.4582 9.56203 12.2676 9.02757 11.9104C8.49311 11.5533 8.07655 11.0458 7.83056 10.4519C7.58458 9.85803 7.52022 9.20457 7.64562 8.57413C7.77102 7.94369 8.08055 7.36459 8.53507 6.91007C8.98959 6.45555 9.56869 6.14602 10.1991 6.02062C10.8296 5.89522 11.483 5.95958 12.0769 6.20556C12.6708 6.45155 13.1783 6.86811 13.5354 7.40257C13.8926 7.93703 14.0832 8.56538 14.0832 9.20817C14.0832 10.0701 13.7408 10.8968 13.1313 11.5063C12.5218 12.1158 11.6951 12.4582 10.8332 12.4582Z" fill="white"/>
</svg>
