<svg width="35" height="35" viewBox="0 0 35 35" fill="none" xmlns="http://www.w3.org/2000/svg">
<circle cx="17.5" cy="17.5" r="17.5" fill="white" fill-opacity="0.12"/>
<path d="M25 9H11C10.2044 9 9.44129 9.31607 8.87868 9.87868C8.31607 10.4413 8 11.2044 8 12V22C8 22.7956 8.31607 23.5587 8.87868 24.1213C9.44129 24.6839 10.2044 25 11 25H25C25.7956 25 26.5587 24.6839 27.1213 24.1213C27.6839 23.5587 28 22.7956 28 22V12C28 11.2044 27.6839 10.4413 27.1213 9.87868C26.5587 9.31607 25.7956 9 25 9ZM11 23C10.7348 23 10.4804 22.8946 10.2929 22.7071C10.1054 22.5196 10 22.2652 10 22V19.58L13.3 16.29C13.4869 16.1068 13.7382 16.0041 14 16.0041C14.2618 16.0041 14.5131 16.1068 14.7 16.29L21.41 23H11ZM26 22C26 22.2652 25.8946 22.5196 25.7071 22.7071C25.5196 22.8946 25.2652 23 25 23H24.23L20.42 19.17L21.3 18.29C21.4869 18.1068 21.7382 18.0041 22 18.0041C22.2618 18.0041 22.5131 18.1068 22.7 18.29L26 21.58V22ZM26 18.76L24.12 16.89C23.5501 16.3424 22.7904 16.0366 22 16.0366C21.2096 16.0366 20.4499 16.3424 19.88 16.89L19 17.77L16.12 14.89C15.5501 14.3424 14.7904 14.0366 14 14.0366C13.2096 14.0366 12.4499 14.3424 11.88 14.89L10 16.76V12C10 11.7348 10.1054 11.4804 10.2929 11.2929C10.4804 11.1054 10.7348 11 11 11H25C25.2652 11 25.5196 11.1054 25.7071 11.2929C25.8946 11.4804 26 11.7348 26 12V18.76Z" fill="#6931F9"/>
</svg>
