<svg width="28" height="20" viewBox="0 0 28 20" fill="none" xmlns="http://www.w3.org/2000/svg">
<path d="M6.04014 19.375C5.58423 19.3758 5.13024 19.3159 4.69014 19.1969C3.36911 18.8201 2.24836 17.9407 1.56832 16.7471C0.888293 15.5535 0.703158 14.141 1.05264 12.8125L3.23701 4.52499C3.40713 3.85428 3.70956 3.22432 4.12653 2.67211C4.5435 2.11991 5.06661 1.65659 5.66514 1.30937C6.24791 0.97182 6.89188 0.753266 7.55972 0.666366C8.22756 0.579466 8.90601 0.625947 9.55576 0.803117C10.2465 0.994918 10.8898 1.32812 11.4449 1.78161C12.0001 2.23509 12.455 2.79897 12.7808 3.43749H15.2183C15.5426 2.79795 15.9971 2.23324 16.5524 1.77958C17.1078 1.32593 17.7518 0.99333 18.4433 0.803117C19.093 0.625947 19.7715 0.579466 20.4393 0.666366C21.1071 0.753266 21.7511 0.97182 22.3339 1.30937C22.9295 1.6557 23.4507 2.11648 23.8674 2.66515C24.2842 3.21382 24.5882 3.83954 24.762 4.50624L26.9464 12.8125C27.3011 14.1449 27.1174 15.5633 26.4351 16.7614C25.7527 17.9594 24.6264 18.841 23.2995 19.2156C22.6498 19.3928 21.9713 19.4393 21.3035 19.3524C20.6356 19.2655 19.9917 19.0469 19.4089 18.7094C18.8123 18.3643 18.2903 17.9039 17.8735 17.355C17.4566 16.8062 17.1531 16.1798 16.9808 15.5125L16.812 14.6875H11.187L10.9714 15.4937C10.799 16.1611 10.4956 16.7874 10.0787 17.3363C9.66181 17.8851 9.13986 18.3455 8.54326 18.6906C7.78152 19.13 6.91945 19.3657 6.04014 19.375ZM8.21514 2.49999C7.64939 2.50191 7.09381 2.6505 6.60264 2.93124C5.83281 3.38291 5.27325 4.12113 5.04639 4.98437L2.86201 13.2719C2.63344 14.1257 2.74894 15.0351 3.18369 15.8047C3.61844 16.5743 4.33774 17.1426 5.18701 17.3875C5.59717 17.4994 6.02545 17.5288 6.44706 17.4741C6.86867 17.4194 7.27525 17.2816 7.64326 17.0687C8.02642 16.8475 8.36148 16.5519 8.62874 16.1994C8.896 15.8468 9.09006 15.4443 9.19951 15.0156L9.78076 12.8125H18.2183L18.7901 15.0156C18.9015 15.4435 19.0963 15.8451 19.3634 16.1974C19.6305 16.5498 19.9645 16.8459 20.3464 17.0687C20.7162 17.2814 21.1244 17.419 21.5474 17.4737C21.9705 17.5284 22.4003 17.4991 22.812 17.3875C23.6623 17.1449 24.3825 16.5765 24.8161 15.8058C25.2497 15.0352 25.3616 14.1246 25.1276 13.2719L22.9433 4.98437C22.8344 4.55668 22.6416 4.1549 22.3761 3.80243C22.1105 3.44995 21.7775 3.15381 21.3964 2.93124C21.0266 2.71859 20.6184 2.58097 20.1953 2.52627C19.7722 2.47158 19.3425 2.50088 18.9308 2.61249C18.4216 2.75764 17.9543 3.02219 17.5679 3.38417C17.1815 3.74615 16.887 4.1951 16.7089 4.69374L16.4839 5.31249H11.5151L11.2901 4.69374C11.1105 4.19443 10.8143 3.74517 10.4263 3.38321C10.0382 3.02125 9.56947 2.75704 9.05889 2.61249C8.78376 2.53831 8.50009 2.50048 8.21514 2.49999Z" fill="#E5E5E5"/>
</svg>
