<svg width="22" height="24" viewBox="0 0 22 24" fill="none" xmlns="http://www.w3.org/2000/svg">
<path d="M14.4861 11.4C14.4861 12.132 13.9376 12.732 13.2427 12.732C12.5601 12.732 11.9993 12.132 11.9993 11.4C11.9993 10.668 12.5479 10.068 13.2427 10.068C13.9376 10.068 14.4861 10.668 14.4861 11.4ZM8.7932 10.068C8.09834 10.068 7.54977 10.668 7.54977 11.4C7.54977 12.132 8.11053 12.732 8.7932 12.732C9.48806 12.732 10.0366 12.132 10.0366 11.4C10.0488 10.668 9.48806 10.068 8.7932 10.068ZM21.6663 2.472V24C18.5952 21.3284 19.5774 22.2127 16.01 18.948L16.6561 21.168H2.83206C1.45453 21.168 0.333008 20.064 0.333008 18.696V2.472C0.333008 1.104 1.45453 0 2.83206 0H19.1673C20.5448 0 21.6663 1.104 21.6663 2.472ZM18.1921 13.848C18.1921 9.984 16.4366 6.852 16.4366 6.852C14.6812 5.556 13.0111 5.592 13.0111 5.592L12.8404 5.784C14.9128 6.408 15.8759 7.308 15.8759 7.308C12.9801 5.7457 9.57853 5.74542 6.76958 6.96C6.31853 7.164 6.05034 7.308 6.05034 7.308C6.05034 7.308 7.06215 6.36 9.25644 5.736L9.13453 5.592C9.13453 5.592 7.46444 5.556 5.70901 6.852C5.70901 6.852 3.95358 9.984 3.95358 13.848C3.95358 13.848 4.97758 15.588 7.67167 15.672C7.67167 15.672 8.12272 15.132 8.48844 14.676C6.94025 14.22 6.3551 13.26 6.3551 13.26C6.53444 13.3836 6.83015 13.5437 6.85491 13.56C8.91253 14.6943 11.8353 15.0659 14.4618 13.98C14.8884 13.824 15.3639 13.596 15.8637 13.272C15.8637 13.272 15.2542 14.256 13.6572 14.7C14.0229 15.156 14.4618 15.672 14.4618 15.672C17.1559 15.588 18.1921 13.848 18.1921 13.848Z" fill="white"/>
</svg>
