<svg width="25" height="26" viewBox="0 0 25 26" fill="none" xmlns="http://www.w3.org/2000/svg">
<path d="M21 5.52914C19.8958 4.42207 18.4321 3.74637 16.8732 3.62411C15.3144 3.50185 13.7633 3.94109 12.5 4.86248C11.1746 3.87668 9.52495 3.42968 7.88321 3.61147C6.24147 3.79327 4.72959 4.59037 3.65202 5.84225C2.57445 7.09414 2.01123 8.70781 2.0758 10.3583C2.14036 12.0088 2.8279 13.5736 3.99996 14.7375L10.4687 21.2166C11.0104 21.7497 11.7399 22.0485 12.5 22.0485C13.26 22.0485 13.9895 21.7497 14.5312 21.2166L21 14.7375C22.2162 13.5138 22.8988 11.8586 22.8988 10.1333C22.8988 8.40803 22.2162 6.75282 21 5.52914V5.52914ZM19.5312 13.3L13.0625 19.7687C12.9889 19.8431 12.9012 19.9021 12.8047 19.9423C12.7081 19.9826 12.6046 20.0033 12.5 20.0033C12.3954 20.0033 12.2918 19.9826 12.1952 19.9423C12.0987 19.9021 12.0111 19.8431 11.9375 19.7687L5.46871 13.2687C4.65179 12.4337 4.19435 11.3119 4.19435 10.1437C4.19435 8.97553 4.65179 7.85378 5.46871 7.01873C6.30117 6.19684 7.42389 5.73599 8.59371 5.73599C9.76353 5.73599 10.8863 6.19684 11.7187 7.01873C11.8155 7.11636 11.9308 7.19386 12.0577 7.24674C12.1846 7.29962 12.3208 7.32685 12.4583 7.32685C12.5958 7.32685 12.732 7.29962 12.8589 7.24674C12.9858 7.19386 13.101 7.11636 13.1979 7.01873C14.0303 6.19684 15.1531 5.73599 16.3229 5.73599C17.4927 5.73599 18.6154 6.19684 19.4479 7.01873C20.276 7.84284 20.7485 8.95851 20.7641 10.1267C20.7796 11.295 20.3371 12.4228 19.5312 13.2687V13.3Z" fill="white"/>
</svg>
