<svg width="15" height="15" viewBox="0 0 15 15" fill="none" xmlns="http://www.w3.org/2000/svg">
<path d="M7.43945 3.73804C7.06861 3.73804 6.7061 3.848 6.39776 4.05403C6.08942 4.26006 5.84909 4.55289 5.70718 4.89551C5.56527 5.23812 5.52813 5.61512 5.60048 5.97883C5.67283 6.34255 5.8514 6.67664 6.11363 6.93886C6.37585 7.20109 6.70994 7.37966 7.07366 7.45201C7.43737 7.52436 7.81437 7.48723 8.15699 7.34531C8.4996 7.2034 8.79243 6.96307 8.99846 6.65473C9.20449 6.34639 9.31445 5.98388 9.31445 5.61304C9.31389 5.11593 9.11616 4.63935 8.76465 4.28784C8.41315 3.93633 7.93656 3.7386 7.43945 3.73804ZM7.43945 6.55054C7.25403 6.55054 7.07278 6.49555 6.91861 6.39254C6.76444 6.28953 6.64427 6.14311 6.57332 5.9718C6.50236 5.8005 6.48379 5.612 6.51997 5.43014C6.55614 5.24828 6.64543 5.08124 6.77654 4.95012C6.90765 4.81901 7.0747 4.72972 7.25656 4.69355C7.43841 4.65738 7.62691 4.67594 7.79822 4.7469C7.96952 4.81786 8.11594 4.93802 8.21896 5.09219C8.32197 5.24636 8.37695 5.42762 8.37695 5.61304C8.37667 5.86159 8.2778 6.09988 8.10205 6.27563C7.9263 6.45139 7.68801 6.55025 7.43945 6.55054Z" fill="#E5E5E5"/>
<path d="M11.0426 2.00727C10.1518 1.11665 8.96263 0.587595 7.70465 0.522196C6.44667 0.456798 5.20906 0.859697 4.23067 1.65313C3.25228 2.44657 2.60248 3.5743 2.40667 4.81866C2.21087 6.06303 2.48294 7.33582 3.17038 8.39138L6.71258 13.8293C6.7914 13.9503 6.89918 14.0497 7.02615 14.1185C7.15311 14.1873 7.29524 14.2234 7.43965 14.2234C7.58407 14.2234 7.7262 14.1873 7.85316 14.1185C7.98012 14.0497 8.0879 13.9503 8.16673 13.8293L11.709 8.39138C12.3469 7.41219 12.6288 6.2435 12.5075 5.0812C12.3861 3.91889 11.869 2.83361 11.0426 2.00727ZM10.9235 7.87965L7.43967 13.2278L3.95577 7.87965C2.88936 6.24257 3.11809 4.05175 4.49961 2.67017C4.8857 2.28407 5.34406 1.97779 5.84851 1.76884C6.35297 1.55988 6.89365 1.45233 7.43967 1.45233C7.98569 1.45233 8.52636 1.55988 9.03082 1.76884C9.53528 1.97779 9.99364 2.28407 10.3797 2.67017C11.7612 4.05175 11.9899 6.24257 10.9235 7.87965Z" fill="#E5E5E5"/>
</svg>
