<svg width="13" height="13" viewBox="0 0 13 13" fill="none" xmlns="http://www.w3.org/2000/svg">
<path d="M2.54411 1.66062C4.99911 -0.35126 8.62723 -0.21126 10.9191 2.08062C13.3597 4.52124 13.3597 8.47874 10.9191 10.9194C8.47848 13.36 4.52098 13.36 2.08036 10.9194C1.33138 10.1714 0.784781 9.24536 0.491896 8.22819C0.199012 7.21102 0.169449 6.1361 0.405984 5.10437L0.454109 4.90874L1.66286 5.22749C1.3632 6.3664 1.47517 7.57454 1.97903 8.63898C2.4829 9.70342 3.34632 10.5559 4.41713 11.046C5.48794 11.5362 6.69741 11.6327 7.83239 11.3185C8.96737 11.0042 9.95501 10.2995 10.6213 9.32838C11.2875 8.35727 11.5896 7.18217 11.4743 6.01015C11.3589 4.83814 10.8336 3.74444 9.9909 2.92181C9.14817 2.09917 8.04212 1.60041 6.86766 1.51341C5.6932 1.42641 4.52573 1.75676 3.57098 2.44624L3.43286 2.54999L4.06848 3.18562L1.19598 3.84812L1.85848 0.975616L2.54348 1.66062H2.54411ZM7.12473 2.74999V3.99999H8.68723V5.24999H5.24973C5.17164 5.24985 5.09633 5.27895 5.03862 5.33156C4.98091 5.38417 4.94499 5.45648 4.93794 5.53425C4.93088 5.61203 4.9532 5.68962 5.0005 5.75176C5.04779 5.8139 5.11664 5.85608 5.19348 5.86999L5.24973 5.87499H7.74973C8.16413 5.87499 8.56156 6.03961 8.85459 6.33264C9.14761 6.62566 9.31223 7.02309 9.31223 7.43749C9.31223 7.85189 9.14761 8.24932 8.85459 8.54235C8.56156 8.83537 8.16413 8.99999 7.74973 8.99999H7.12473V10.25H5.87473V8.99999H4.31223V7.74999H7.74973C7.82783 7.75013 7.90314 7.72104 7.96085 7.66842C8.01856 7.61581 8.05448 7.5435 8.06153 7.46573C8.06859 7.38796 8.04627 7.31036 7.99897 7.24822C7.95167 7.18608 7.88283 7.1439 7.80598 7.12999L7.74973 7.12499H5.24973C4.83533 7.12499 4.43791 6.96037 4.14488 6.66735C3.85185 6.37432 3.68723 5.97689 3.68723 5.56249C3.68723 5.14809 3.85185 4.75066 4.14488 4.45764C4.43791 4.16461 4.83533 3.99999 5.24973 3.99999H5.87473V2.74999H7.12473Z" fill="#E5E5E5"/>
</svg>
