<svg width="14" height="14" viewBox="0 0 14 14" fill="none" xmlns="http://www.w3.org/2000/svg">
<path d="M13.1813 10.4813L13.8938 9.85625L13.2688 8.775L12.3625 9.08125C12.1625 8.9125 11.9375 8.78125 11.6875 8.6875L11.5 7.75H10.25L10.0625 8.68125C9.8125 8.775 9.5875 8.90625 9.3875 9.075L8.48125 8.76875L7.85625 9.85L8.56875 10.475C8.51875 10.7875 8.51875 10.95 8.56875 11.2625L7.85625 11.8875L8.48125 12.9688L9.3875 12.6625C9.5875 12.8313 9.8125 12.9625 10.0625 13.0562L10.25 14H11.5L11.6875 13.0688C11.9375 12.975 12.1625 12.8437 12.3625 12.675L13.2688 12.9813L13.8938 11.9L13.1813 11.275C13.2313 10.9562 13.2313 10.7938 13.1813 10.4813ZM10.875 12.125C10.1875 12.125 9.625 11.5625 9.625 10.875C9.625 10.1875 10.1875 9.625 10.875 9.625C11.5625 9.625 12.125 10.1875 12.125 10.875C12.125 11.5625 11.5625 12.125 10.875 12.125ZM5.875 3.375V6.75625L7.35 8.23125L8 7.1125L7.125 6.24375V3.375H5.875ZM12.125 6.5C12.125 5.00816 11.5324 3.57742 10.4775 2.52252C9.42258 1.46763 7.99184 0.875 6.5 0.875C4.73125 0.875 3.15625 1.7 2.125 2.975V1.5H0.875V5.25H4.625V4H2.9125C3.31561 3.422 3.85219 2.94976 4.47673 2.62334C5.10126 2.29693 5.79531 2.12598 6.5 2.125C8.9125 2.125 10.875 4.0875 10.875 6.5H12.125ZM5.7875 10.8188C3.91875 10.5125 2.44375 9.00625 2.175 7.125H0.9125C1.225 9.9375 3.60625 12.125 6.5 12.125H6.54375L5.7875 10.8188Z" fill="white"/>
</svg>
