<svg width="19" height="22" viewBox="0 0 19 22" fill="none" xmlns="http://www.w3.org/2000/svg">
<path d="M15.75 0.404297H3.25C2.4212 0.404297 1.62634 0.733537 1.04029 1.31959C0.45424 1.90564 0.125 2.7005 0.125 3.5293V14.9876C0.125 15.8164 0.45424 16.6113 1.04029 17.1973C1.62634 17.7834 2.4212 18.1126 3.25 18.1126H5.94792L8.76042 20.9355C8.85775 21.0321 8.97318 21.1085 9.1001 21.1603C9.22701 21.2121 9.36291 21.2384 9.5 21.2376C9.74828 21.2376 9.98839 21.149 10.1771 20.9876L13.5312 18.1126H15.75C16.5788 18.1126 17.3737 17.7834 17.9597 17.1973C18.5458 16.6113 18.875 15.8164 18.875 14.9876V3.5293C18.875 2.7005 18.5458 1.90564 17.9597 1.31959C17.3737 0.733537 16.5788 0.404297 15.75 0.404297ZM16.7917 14.9876C16.7917 15.2639 16.6819 15.5288 16.4866 15.7242C16.2912 15.9196 16.0263 16.0293 15.75 16.0293H13.1458C12.8976 16.0293 12.6574 16.1179 12.4687 16.2793L9.55208 18.7793L7.11458 16.3314C7.01725 16.2348 6.90182 16.1585 6.7749 16.1066C6.64799 16.0548 6.51209 16.0285 6.375 16.0293H3.25C2.97373 16.0293 2.70878 15.9196 2.51343 15.7242C2.31808 15.5288 2.20833 15.2639 2.20833 14.9876V3.5293C2.20833 3.25303 2.31808 2.98808 2.51343 2.79273C2.70878 2.59738 2.97373 2.48763 3.25 2.48763H15.75C16.0263 2.48763 16.2912 2.59738 16.4866 2.79273C16.6819 2.98808 16.7917 3.25303 16.7917 3.5293V14.9876Z" fill="white"/>
</svg>
