<svg width="24" height="24" viewBox="0 0 24 24" fill="none" xmlns="http://www.w3.org/2000/svg">
<path d="M17.3977 15.014L17.3942 15.015L17.3372 14.8015C19.1857 13.2675 20.3637 10.953 20.3637 8.3635C20.3637 3.7445 16.6192 0 12.0002 0C7.38172 0 3.63672 3.7445 3.63672 8.3635C3.63672 10.915 4.78272 13.196 6.58472 14.73L6.35872 15.5735H6.35922L4.92622 20.9225L4.48922 22.5545L6.44322 21.726L6.45272 21.695L7.75872 21.121L8.61622 22.2805L9.88622 24L10.3232 22.367L11.8367 16.7185C11.8912 16.7195 11.9447 16.727 11.9997 16.727C12.0237 16.727 12.0467 16.7235 12.0707 16.7235L13.5827 22.367L14.0202 24L15.2907 22.28L16.1482 21.1205L17.4542 21.6945L17.4637 21.7255L19.4177 22.554L18.9807 20.922L17.3977 15.014ZM9.05022 20.6555L8.19822 19.5065L6.88422 20.0755L8.04822 15.734C8.70422 16.0865 9.41372 16.3495 10.1602 16.517L9.05022 20.6555ZM5.86672 8.3635C5.86672 4.976 8.61322 2.23 12.0002 2.23C15.3872 2.23 18.1337 4.976 18.1337 8.3635C18.1337 11.7505 15.3877 14.4965 12.0002 14.4965C8.61272 14.4965 5.86672 11.7505 5.86672 8.3635ZM15.7087 19.5065L14.8567 20.6555L13.7532 16.5405C14.5007 16.381 15.2102 16.1195 15.8692 15.7745L17.0227 20.076L15.7087 19.5065Z" fill="#B5B5B5"/>
</svg>
