<svg width="68" height="20" viewBox="0 0 68 20" fill="none" xmlns="http://www.w3.org/2000/svg">
<path d="M45.7382 0.757812H40.546C40.2406 0.757812 39.9352 1.06892 39.7824 1.38003L37.6445 15.0689C37.6445 15.38 37.7972 15.5356 38.1026 15.5356H40.8514C41.1568 15.5356 41.3096 15.38 41.3096 15.0689L41.9204 11.18C41.9204 10.8689 42.2258 10.5578 42.684 10.5578H44.3638C47.8762 10.5578 49.8614 8.8467 50.3196 5.42448C50.625 4.02448 50.3196 2.78003 49.7087 2.00226C48.7925 1.22448 47.4181 0.757812 45.7382 0.757812ZM46.3491 5.89114C46.0436 7.75781 44.6692 7.75781 43.2948 7.75781H42.3785L42.9894 4.18003C42.9894 4.02448 43.1421 3.86892 43.4475 3.86892H43.753C44.6692 3.86892 45.5855 3.86892 46.0436 4.49114C46.3491 4.6467 46.3491 5.11337 46.3491 5.89114Z" fill="#139AD6"/>
<path d="M8.32373 0.757812H3.13151C2.82609 0.757812 2.52066 1.06892 2.36795 1.38003L0.22998 15.0689C0.22998 15.38 0.382694 15.5356 0.688119 15.5356H3.13151C3.43694 15.5356 3.74236 15.2245 3.89507 14.9134L4.50593 11.18C4.50593 10.8689 4.81135 10.5578 5.26949 10.5578H6.94932C10.4617 10.5578 12.447 8.8467 12.9051 5.42448C13.2105 4.02448 12.9051 2.78003 12.2942 2.00226C11.378 1.22448 10.1563 0.757812 8.32373 0.757812ZM8.93458 5.89114C8.62916 7.75781 7.25475 7.75781 5.88033 7.75781H5.11677L5.72762 4.18003C5.72762 4.02448 5.88033 3.86892 6.18576 3.86892H6.49118C7.40746 3.86892 8.32373 3.86892 8.78187 4.49114C8.93458 4.6467 9.08729 5.11337 8.93458 5.89114Z" fill="#263B80"/>
<path d="M24.0531 5.73689H21.6097C21.457 5.73689 21.1515 5.89245 21.1515 6.048L20.9988 6.82578L20.8461 6.51467C20.2353 5.73689 19.1663 5.42578 17.9446 5.42578C15.1957 5.42578 12.7524 7.60356 12.2942 10.5591C11.9888 12.1147 12.4469 13.5147 13.2105 14.448C13.9741 15.3813 15.043 15.6924 16.4174 15.6924C18.7081 15.6924 19.9298 14.2924 19.9298 14.2924L19.7771 15.0702C19.7771 15.3813 19.9298 15.5369 20.2353 15.5369H22.5259C22.8314 15.5369 23.1368 15.2258 23.2895 14.9147L24.6639 6.20356C24.5112 6.048 24.2058 5.73689 24.0531 5.73689ZM20.5407 10.7147C20.2353 12.1147 19.1663 13.2036 17.6391 13.2036C16.8756 13.2036 16.2647 12.8924 15.9593 12.5813C15.6539 12.1147 15.5012 11.4924 15.5012 10.7147C15.6539 9.31467 16.8756 8.22578 18.25 8.22578C19.0136 8.22578 19.4717 8.53689 19.9298 8.848C20.388 9.31467 20.5407 10.0924 20.5407 10.7147Z" fill="#263B80"/>
<path d="M61.315 5.73689H58.8716C58.7189 5.73689 58.4134 5.89245 58.4134 6.048L58.2607 6.82578L58.108 6.51467C57.4972 5.73689 56.4282 5.42578 55.2065 5.42578C52.4577 5.42578 50.0143 7.60356 49.5561 10.5591C49.2507 12.1147 49.7088 13.5147 50.4724 14.448C51.236 15.3813 52.3049 15.6924 53.6793 15.6924C55.97 15.6924 57.1917 14.2924 57.1917 14.2924L57.039 15.0702C57.039 15.3813 57.1917 15.5369 57.4972 15.5369H59.7878C60.0933 15.5369 60.3987 15.2258 60.5514 14.9147L61.9258 6.20356C61.7731 6.048 61.6204 5.73689 61.315 5.73689ZM57.8026 10.7147C57.4972 12.1147 56.4282 13.2036 54.901 13.2036C54.1375 13.2036 53.5266 12.8924 53.2212 12.5813C52.9158 12.1147 52.7631 11.4924 52.7631 10.7147C52.9158 9.31467 54.1375 8.22578 55.5119 8.22578C56.2755 8.22578 56.7336 8.53689 57.1917 8.848C57.8026 9.31467 57.9553 10.0924 57.8026 10.7147Z" fill="#139AD6"/>
<path d="M37.339 5.73438H34.7429C34.4375 5.73438 34.2848 5.88993 34.1321 6.04549L30.7724 11.3344L29.2453 6.3566C29.0926 6.04549 28.9399 5.88993 28.4817 5.88993H26.0383C25.7329 5.88993 25.5802 6.20104 25.5802 6.51215L28.329 14.7566L25.7329 18.4899C25.5802 18.801 25.7329 19.2677 26.0383 19.2677H28.4817C28.7872 19.2677 28.9399 19.1122 29.0926 18.9566L37.4918 6.66771C37.9499 6.20104 37.6445 5.73438 37.339 5.73438Z" fill="#263B80"/>
<path d="M64.2163 1.2237L62.0784 15.2237C62.0784 15.5348 62.2311 15.6904 62.5365 15.6904H64.6745C64.9799 15.6904 65.2853 15.3793 65.438 15.0681L67.576 1.37926C67.576 1.06814 67.4233 0.912587 67.1179 0.912587H64.6745C64.5218 0.757032 64.369 0.912589 64.2163 1.2237Z" fill="#139AD6"/>
</svg>
