<svg width="12" height="13" viewBox="0 0 12 13" fill="none" xmlns="http://www.w3.org/2000/svg">
<path d="M7.93607 8.60059C8.29056 8.41016 8.69633 8.30176 9.12845 8.30176H9.12992C9.17386 8.30176 9.19437 8.24902 9.16215 8.21973C8.71275 7.81642 8.1994 7.49069 7.6431 7.25586C7.63724 7.25293 7.63138 7.25146 7.62552 7.24853C8.53519 6.58789 9.12699 5.51416 9.12699 4.30273C9.12699 2.2959 7.50394 0.669922 5.5015 0.669922C3.49906 0.669922 1.87748 2.2959 1.87748 4.30273C1.87748 5.51416 2.46927 6.58789 3.38041 7.24853C3.37455 7.25146 3.36869 7.25293 3.36283 7.25586C2.70804 7.53271 2.12064 7.92969 1.61527 8.43652C1.11282 8.93806 0.712801 9.53262 0.437537 10.187C0.166706 10.8278 0.0205417 11.5144 0.00687257 12.21C0.00648159 12.2256 0.00922382 12.2411 0.0149377 12.2557C0.0206517 12.2703 0.0292216 12.2835 0.0401427 12.2947C0.0510637 12.3059 0.0641149 12.3148 0.0785271 12.3209C0.0929393 12.327 0.108421 12.3301 0.12406 12.3301H1.0015C1.06449 12.3301 1.11722 12.2788 1.11869 12.2158C1.14799 11.085 1.60062 10.0259 2.40189 9.22314C3.22953 8.39258 4.33109 7.93555 5.50297 7.93555C6.33353 7.93555 7.13041 8.16553 7.81742 8.59619C7.83507 8.60728 7.85533 8.61353 7.87616 8.6143C7.89699 8.61507 7.91765 8.61034 7.93607 8.60059ZM5.50297 6.82227C4.83207 6.82227 4.20072 6.56006 3.72465 6.08398C3.49041 5.85036 3.30472 5.57269 3.17826 5.26698C3.0518 4.96127 2.98708 4.63356 2.98783 4.30273C2.98783 3.63037 3.25004 2.99756 3.72465 2.52148C4.19925 2.04541 4.8306 1.7832 5.50297 1.7832C6.17533 1.7832 6.80521 2.04541 7.28129 2.52148C7.51552 2.75511 7.70122 3.03278 7.82767 3.33849C7.95413 3.6442 8.01885 3.9719 8.0181 4.30273C8.0181 4.9751 7.7559 5.60791 7.28129 6.08398C6.80521 6.56006 6.17386 6.82227 5.50297 6.82227ZM10.8907 10.3086H7.37504C7.31058 10.3086 7.25785 10.3613 7.25785 10.4258V11.2461C7.25785 11.3105 7.31058 11.3633 7.37504 11.3633H10.8907C10.9551 11.3633 11.0078 11.3105 11.0078 11.2461V10.4258C11.0078 10.3613 10.9551 10.3086 10.8907 10.3086Z" fill="#E5E5E5"/>
</svg>
