<svg width="46" height="46" viewBox="0 0 46 46" fill="none" xmlns="http://www.w3.org/2000/svg">
<path d="M42.8332 20.1654H25.8332V3.16536C25.8332 2.41392 25.5347 1.69325 25.0034 1.1619C24.472 0.630543 23.7514 0.332031 22.9999 0.332031C22.2485 0.332031 21.5278 0.630543 20.9964 1.1619C20.4651 1.69325 20.1666 2.41392 20.1666 3.16536V20.1654H3.16658C2.41514 20.1654 1.69447 20.4639 1.16312 20.9952C0.631764 21.5266 0.333252 22.2472 0.333252 22.9987C0.333252 23.7501 0.631764 24.4708 1.16312 25.0022C1.69447 25.5335 2.41514 25.832 3.16658 25.832H20.1666V42.832C20.1666 43.5835 20.4651 44.3041 20.9964 44.8355C21.5278 45.3669 22.2485 45.6654 22.9999 45.6654C23.7514 45.6654 24.472 45.3669 25.0034 44.8355C25.5347 44.3041 25.8332 43.5835 25.8332 42.832V25.832H42.8332C43.5847 25.832 44.3054 25.5335 44.8367 25.0022C45.3681 24.4708 45.6666 23.7501 45.6666 22.9987C45.6666 22.2472 45.3681 21.5266 44.8367 20.9952C44.3054 20.4639 43.5847 20.1654 42.8332 20.1654Z" fill="#6931F9"/>
</svg>
