<svg width="23" height="23" viewBox="0 0 23 23" fill="none" xmlns="http://www.w3.org/2000/svg">
<path d="M9.05176 13.7236C8.43184 13.7236 7.9332 13.225 7.9332 12.6186C7.9332 11.9986 8.43184 11.5 9.05176 11.5C9.66269 11.5 10.1568 11.9986 10.1568 12.6186C10.1568 13.2295 9.6582 13.7236 9.05176 13.7236ZM22.6406 11.5C22.6406 17.6543 17.6543 22.6406 11.5 22.6406C5.3457 22.6406 0.359375 17.6543 0.359375 11.5C0.359375 5.3457 5.3457 0.359375 11.5 0.359375C17.6543 0.359375 22.6406 5.3457 22.6406 11.5ZM16.6975 9.64922C16.2752 9.64922 15.9023 9.82441 15.6283 10.0984C14.6221 9.40215 13.2654 8.95293 11.7605 8.90352L12.5422 5.38613L15.0309 5.94766C15.0309 6.55859 15.5295 7.05273 16.1359 7.05273C16.7559 7.05273 17.2545 6.54512 17.2545 5.93418C17.2545 5.32324 16.7559 4.81562 16.1359 4.81562C15.7002 4.81562 15.3273 5.07617 15.1432 5.43555L12.3939 4.82461C12.2592 4.78867 12.1199 4.8875 12.084 5.02227L11.226 8.90352C9.73457 8.96641 8.39141 9.41113 7.38516 10.1074C7.11113 9.81992 6.7248 9.64922 6.30254 9.64922C4.73477 9.64922 4.22266 11.7561 5.65566 12.4703C5.60625 12.6949 5.5793 12.9285 5.5793 13.1666C5.5793 15.5295 8.23867 17.4432 11.509 17.4432C14.7928 17.4432 17.4521 15.5295 17.4521 13.1666C17.4521 12.9285 17.4252 12.6814 17.3668 12.4568C18.7729 11.7381 18.2563 9.64922 16.6975 9.64922ZM13.6023 14.8691C12.7848 15.6867 10.1838 15.6732 9.39766 14.8691C9.29883 14.7703 9.12363 14.7703 9.0248 14.8691C8.9125 14.9814 8.9125 15.1566 9.0248 15.2555C10.049 16.2797 12.9465 16.2797 13.9752 15.2555C14.0875 15.1566 14.0875 14.9814 13.9752 14.8691C13.8764 14.7703 13.7012 14.7703 13.6023 14.8691ZM13.9482 11.5C13.3373 11.5 12.8432 11.9986 12.8432 12.6186C12.8432 13.2295 13.3418 13.7236 13.9482 13.7236C14.5682 13.7236 15.0668 13.225 15.0668 12.6186C15.0668 11.9986 14.5727 11.5 13.9482 11.5Z" fill="#7265F1"/>
</svg>
