<svg width="23" height="24" viewBox="0 0 23 24" fill="none" xmlns="http://www.w3.org/2000/svg">
<path d="M11.0695 3.56046C10.4162 2.40711 8.98104 0.653575 6.41004 1.03064C5.85506 1.11279 5.34808 1.39163 4.98151 1.81635C4.61495 2.24106 4.41322 2.78336 4.41309 3.34439V6.86388H7.80777C7.83173 6.00245 8.18182 5.18224 8.7873 4.56903C9.39277 3.95582 10.2085 3.59535 11.0695 3.56046Z" fill="#7FE7CC"/>
<path d="M8.82031 6.86409H13.5889C13.566 6.24701 13.3048 5.66281 12.8602 5.23432C12.4155 4.80582 11.8221 4.56641 11.2046 4.56641C10.5871 4.56641 9.99362 4.80582 9.54898 5.23432C9.10433 5.66281 8.84314 6.24701 8.82031 6.86409Z" fill="#EFCA8C"/>
<path d="M14.6012 6.86388H17.9912V3.34439C17.9911 2.78337 17.7893 2.24108 17.4228 1.81637C17.0562 1.39166 16.5492 1.11281 15.9943 1.03064C13.4234 0.653581 11.9883 2.40689 11.335 3.56021C12.1968 3.594 13.0137 3.95403 13.6201 4.5674C14.2265 5.18078 14.5772 6.00167 14.6012 6.86388Z" fill="#7FE7CC"/>
<path d="M2.44629 21.6044C2.44628 22.0025 2.60444 22.3844 2.88598 22.666C3.16753 22.9475 3.54939 23.1057 3.94756 23.1057H7.80631V14.0879H2.44629V21.6044Z" fill="#DFE38E"/>
<path d="M21.0231 7.875H1.38176C1.07048 7.87506 0.771965 7.99874 0.551857 8.21885C0.331749 8.43896 0.208067 8.73747 0.208008 9.04875V11.9861C0.208047 12.2745 0.322486 12.5511 0.526213 12.7552C0.729939 12.9593 1.00631 13.0742 1.29468 13.0748H21.1105C21.3988 13.0742 21.6752 12.9592 21.8789 12.7551C22.0826 12.5511 22.197 12.2745 22.197 11.9861V9.04875C22.197 8.8946 22.1666 8.74196 22.1076 8.59955C22.0486 8.45714 21.9622 8.32774 21.8532 8.21874C21.7442 8.10975 21.6148 8.02329 21.4723 7.96431C21.3299 7.90533 21.1773 7.87499 21.0231 7.875Z" fill="#EFCA8C"/>
<path d="M14.9658 23.1057H18.4578C18.655 23.1058 18.8502 23.0669 19.0324 22.9915C19.2146 22.9161 19.3801 22.8055 19.5195 22.666C19.659 22.5266 19.7696 22.3611 19.845 22.1789C19.9205 21.9968 19.9593 21.8015 19.9593 21.6044V14.0879H14.9658V23.1057Z" fill="#DFE38E"/>
<path d="M13.9534 14.0879H8.81836V23.1057H13.9534V14.0879Z" fill="#DFE38E"/>
</svg>
