<svg width="48" height="48" viewBox="0 0 48 48" fill="none" xmlns="http://www.w3.org/2000/svg">
<path fill-rule="evenodd" clip-rule="evenodd" d="M24 0C10.8 0 0 10.8 0 24C0 37.2 10.8 48 24 48C37.2 48 48 37.2 48 24C48 10.8 37.2 0 24 0Z" fill="white"/>
<path fill-rule="evenodd" clip-rule="evenodd" d="M24 0C10.8 0 0 10.8 0 24C0 37.2 10.8 48 24 48C37.2 48 48 37.2 48 24C48 10.8 37.2 0 24 0ZM36 32.64L32.64 36L24 27.36L15.36 36L12 32.64L20.64 24L12 15.36L15.36 12L24 20.64L32.64 12L36 15.36L27.36 24L36 32.64Z" fill="#FF0000"/>
</svg>
