<svg width="36" height="36" viewBox="0 0 36 36" fill="none" xmlns="http://www.w3.org/2000/svg">
<g clip-path="url(#clip0_231_11185)">
<path d="M22.2886 9.79043L6.54281 14.0225C5.92227 14.1905 5.36865 14.5458 4.95743 15.04C4.5462 15.5341 4.29738 16.1431 4.2449 16.7838C4.19241 17.4245 4.33881 18.0659 4.66414 18.6203C4.98946 19.1748 5.47788 19.6155 6.06281 19.8822L11.6465 22.4045C11.7788 22.468 11.897 22.5571 11.9944 22.6668C12.0918 22.7764 12.1664 22.9044 12.2137 23.0432L14.059 28.8857C14.2166 29.382 14.4957 29.8311 14.871 30.1921C15.2463 30.5531 15.7058 30.8147 16.2079 30.9529C16.71 31.0912 17.2386 31.1018 17.7458 30.9837C18.253 30.8657 18.7227 30.6228 19.1121 30.2771C19.4735 29.9496 19.7572 29.5454 19.9422 29.0941L26.004 13.9581C26.218 13.4201 26.2783 12.8331 26.1781 12.2628C26.0779 11.6925 25.8213 11.1612 25.4367 10.7282C25.0522 10.2953 24.555 9.97768 24.0005 9.81086C23.446 9.64405 22.856 9.63458 22.2964 9.78351L22.2886 9.79043ZM24.0649 13.1865L18.0031 28.3225C17.9209 28.5184 17.7809 28.6845 17.6017 28.7986C17.4225 28.9126 17.2127 28.9691 17.0004 28.9606C16.7881 28.952 16.5836 28.8788 16.4141 28.7506C16.2447 28.6225 16.1185 28.4457 16.0524 28.2438L14.1993 22.4082C14.1738 22.3309 14.1438 22.2552 14.1095 22.1815L19.4757 17.4156C19.6823 17.2321 19.8075 16.9741 19.8238 16.6983C19.8402 16.4226 19.7463 16.1516 19.5628 15.945C19.3794 15.7385 19.1214 15.6132 18.8456 15.5969C18.5698 15.5806 18.2988 15.6744 18.0923 15.8579L12.726 20.6238C12.6569 20.581 12.5852 20.5422 12.5115 20.5078L6.93559 17.9786C6.74292 17.8891 6.5822 17.7429 6.47498 17.5595C6.36777 17.3761 6.31918 17.1644 6.33575 16.9526C6.35231 16.7408 6.43323 16.5391 6.56765 16.3747C6.70207 16.2102 6.88356 16.0907 7.0878 16.0323L22.8336 11.8002C23.0193 11.7522 23.2145 11.7565 23.3979 11.8124C23.5813 11.8683 23.7457 11.9737 23.873 12.117C24.0003 12.2604 24.0856 12.4361 24.1194 12.6248C24.1533 12.8135 24.1344 13.0079 24.0649 13.1865V13.1865Z" fill="white"/>
</g>
<defs>
<clipPath id="clip0_231_11185">
<rect width="25" height="25" fill="white" transform="translate(0 16.6011) rotate(-41.6092)"/>
</clipPath>
</defs>
</svg>
