<svg width="23" height="23" viewBox="0 0 23 23" fill="none" xmlns="http://www.w3.org/2000/svg">
<path d="M11.5 20.7C13.94 20.7 16.28 19.7307 18.0054 18.0054C19.7307 16.28 20.7 13.94 20.7 11.5C20.7 9.06001 19.7307 6.71995 18.0054 4.99462C16.28 3.26928 13.94 2.3 11.5 2.3C9.06001 2.3 6.71995 3.26928 4.99462 4.99462C3.26928 6.71995 2.3 9.06001 2.3 11.5C2.3 13.94 3.26928 16.28 4.99462 18.0054C6.71995 19.7307 9.06001 20.7 11.5 20.7ZM11.5 23C5.14855 23 0 17.8514 0 11.5C0 5.14855 5.14855 0 11.5 0C17.8514 0 23 5.14855 23 11.5C23 17.8514 17.8514 23 11.5 23Z" fill="#7265F1"/>
</svg>
