<svg width="54" height="54" viewBox="0 0 54 54" fill="none" xmlns="http://www.w3.org/2000/svg">
<circle cx="27" cy="27" r="27" fill="white"/>
<path d="M21.8054 38.376C32.3715 38.376 38.1507 29.622 38.1507 22.0307C38.1507 21.782 38.1507 21.5345 38.1339 21.2881C39.2582 20.4749 40.2287 19.468 41 18.3145C39.9516 18.7793 38.8394 19.084 37.7005 19.2184C38.8998 18.5005 39.7973 17.3713 40.2261 16.0409C39.0984 16.7101 37.8647 17.1817 36.5782 17.4353C35.7121 16.5143 34.5666 15.9045 33.3189 15.7001C32.0712 15.4958 30.791 15.7083 29.6763 16.3049C28.5616 16.9015 27.6746 17.8488 27.1525 19.0002C26.6305 20.1517 26.5025 21.4431 26.7883 22.6747C24.5044 22.5601 22.27 21.9666 20.2304 20.9325C18.1907 19.8985 16.3912 18.4471 14.9488 16.6726C14.2142 17.9373 13.9892 19.4344 14.3196 20.8591C14.65 22.2838 15.5111 23.5291 16.7274 24.3412C15.8131 24.3145 14.9188 24.0678 14.12 23.6222V23.695C14.1204 25.0213 14.5795 26.3067 15.4195 27.3331C16.2595 28.3595 17.4287 29.0637 18.7288 29.3264C17.8831 29.5571 16.9957 29.5908 16.1349 29.4249C16.5021 30.5663 17.2168 31.5644 18.1791 32.2797C19.1414 32.995 20.3031 33.3917 21.5019 33.4144C20.3108 34.3506 18.9469 35.0428 17.488 35.4514C16.0292 35.8599 14.5041 35.9769 13 35.7955C15.6271 37.4813 18.6839 38.3756 21.8054 38.3715" fill="#1DA1F2"/>
</svg>
