<svg width="47" height="33" viewBox="0 0 47 33" fill="none" xmlns="http://www.w3.org/2000/svg">
<path d="M44.0625 26.875C44.0625 27.5878 43.753 28.2713 43.2021 28.7753C42.6512 29.2794 41.9041 29.5625 41.125 29.5625H5.875C5.09593 29.5625 4.34876 29.2794 3.79787 28.7753C3.24699 28.2713 2.9375 27.5878 2.9375 26.875V10.75C2.9375 10.0372 3.24699 9.35366 3.79787 8.84965C4.34876 8.34565 5.09593 8.0625 5.875 8.0625H9.31775C11.6538 8.06133 13.8937 7.21165 15.5452 5.70019L17.9834 3.47494C18.5327 2.97221 19.2773 2.68908 20.0543 2.6875H26.9398C27.7188 2.68765 28.4659 2.9709 29.0166 3.47494L31.4489 5.70019C32.2674 6.44923 33.2391 7.0434 34.3087 7.44873C35.3782 7.85407 36.5246 8.06263 37.6823 8.0625H41.125C41.9041 8.0625 42.6512 8.34565 43.2021 8.84965C43.753 9.35366 44.0625 10.0372 44.0625 10.75V26.875ZM5.875 5.375C4.31685 5.375 2.82252 5.94129 1.72075 6.9493C0.618972 7.95731 0 9.32446 0 10.75L0 26.875C0 28.3005 0.618972 29.6677 1.72075 30.6757C2.82252 31.6837 4.31685 32.25 5.875 32.25H41.125C42.6831 32.25 44.1775 31.6837 45.2793 30.6757C46.381 29.6677 47 28.3005 47 26.875V10.75C47 9.32446 46.381 7.95731 45.2793 6.9493C44.1775 5.94129 42.6831 5.375 41.125 5.375H37.6823C36.1242 5.3747 34.6301 4.8082 33.5286 3.80013L31.0964 1.57487C29.9949 0.566797 28.5008 0.000304426 26.9427 0H20.0573C18.4992 0.000304426 17.0051 0.566797 15.9036 1.57487L13.4714 3.80013C12.3699 4.8082 10.8758 5.3747 9.31775 5.375H5.875Z" fill="white" fill-opacity="0.3"/>
<path d="M23.5 24.1876C21.5523 24.1876 19.6844 23.4797 18.3072 22.2197C16.93 20.9597 16.1562 19.2507 16.1562 17.4688C16.1562 15.6869 16.93 13.9779 18.3072 12.7179C19.6844 11.4579 21.5523 10.75 23.5 10.75C25.4477 10.75 27.3156 11.4579 28.6928 12.7179C30.07 13.9779 30.8438 15.6869 30.8438 17.4688C30.8438 19.2507 30.07 20.9597 28.6928 22.2197C27.3156 23.4797 25.4477 24.1876 23.5 24.1876ZM23.5 26.8751C26.2268 26.8751 28.8418 25.884 30.7699 24.12C32.698 22.356 33.7812 19.9635 33.7812 17.4688C33.7812 14.9741 32.698 12.5816 30.7699 10.8175C28.8418 9.05352 26.2268 8.0625 23.5 8.0625C20.7732 8.0625 18.1582 9.05352 16.2301 10.8175C14.302 12.5816 13.2188 14.9741 13.2188 17.4688C13.2188 19.9635 14.302 22.356 16.2301 24.12C18.1582 25.884 20.7732 26.8751 23.5 26.8751ZM8.8125 12.0938C8.8125 12.4501 8.65776 12.7919 8.38231 13.0439C8.10687 13.2959 7.73329 13.4375 7.34375 13.4375C6.95421 13.4375 6.58063 13.2959 6.30519 13.0439C6.02974 12.7919 5.875 12.4501 5.875 12.0938C5.875 11.7374 6.02974 11.3956 6.30519 11.1436C6.58063 10.8916 6.95421 10.75 7.34375 10.75C7.73329 10.75 8.10687 10.8916 8.38231 11.1436C8.65776 11.3956 8.8125 11.7374 8.8125 12.0938Z" fill="white" fill-opacity="0.3"/>
</svg>
