<svg width="11" height="11" viewBox="0 0 11 11" fill="none" xmlns="http://www.w3.org/2000/svg">
<path d="M4.58333 6.11111H0.305556C0.122222 6.11111 0 6.23333 0 6.41667V10.6944C0 10.8778 0.122222 11 0.305556 11H4.58333C4.76667 11 4.88889 10.8778 4.88889 10.6944V6.41667C4.88889 6.23333 4.76667 6.11111 4.58333 6.11111ZM4.27778 10.3889H0.611111V6.72222H4.27778V10.3889ZM4.58333 0H0.305556C0.122222 0 0 0.122222 0 0.305556V4.58333C0 4.76667 0.122222 4.88889 0.305556 4.88889H4.58333C4.76667 4.88889 4.88889 4.76667 4.88889 4.58333V0.305556C4.88889 0.122222 4.76667 0 4.58333 0ZM4.27778 4.27778H0.611111V0.611111H4.27778V4.27778ZM10.6944 0H6.41667C6.23333 0 6.11111 0.122222 6.11111 0.305556V4.58333C6.11111 4.76667 6.23333 4.88889 6.41667 4.88889H10.6944C10.8778 4.88889 11 4.76667 11 4.58333V0.305556C11 0.122222 10.8778 0 10.6944 0ZM10.3889 4.27778H6.72222V0.611111H10.3889V4.27778ZM10.6944 8.25H8.86111V6.41667C8.86111 6.23333 8.73889 6.11111 8.55556 6.11111C8.37222 6.11111 8.25 6.23333 8.25 6.41667V8.25H6.41667C6.23333 8.25 6.11111 8.37222 6.11111 8.55556C6.11111 8.73889 6.23333 8.86111 6.41667 8.86111H8.25V10.6944C8.25 10.8778 8.37222 11 8.55556 11C8.73889 11 8.86111 10.8778 8.86111 10.6944V8.86111H10.6944C10.8778 8.86111 11 8.73889 11 8.55556C11 8.37222 10.8778 8.25 10.6944 8.25Z" fill="white"/>
</svg>
