<svg width="32" height="24" viewBox="0 0 32 24" fill="none" xmlns="http://www.w3.org/2000/svg">
<path d="M31.67 5.179C31.67 5.179 31.358 2.826 30.399 1.79C29.182 0.432 27.819 0.424 27.194 0.347C22.717 1.19209e-07 16.002 0 16.002 0H15.987C15.987 0 9.272 1.19209e-07 4.796 0.347C4.171 0.424 2.809 0.432 1.591 1.79C0.633 2.826 0.32 5.179 0.32 5.179C0.32 5.179 0 7.94 0 10.701V13.289C0 16.052 0.32 18.812 0.32 18.812C0.32 18.812 0.632 21.164 1.591 22.198C2.809 23.556 4.406 23.515 5.118 23.657C7.677 23.919 15.995 24 15.995 24C15.995 24 22.717 23.988 27.194 23.645C27.819 23.565 29.182 23.557 30.399 22.199C31.357 21.165 31.67 18.813 31.67 18.813C31.67 18.813 31.99 16.052 31.99 13.29V10.702C31.99 7.94 31.67 5.179 31.67 5.179Z" fill="#E02F2F"/>
<path d="M12 6V18L22 12L12 6Z" fill="white"/>
</svg>
