<svg width="54" height="54" viewBox="0 0 54 54" fill="none" xmlns="http://www.w3.org/2000/svg">
<circle cx="27" cy="27" r="27" fill="white"/>
<g clip-path="url(#clip0_241_949)">
<path d="M40.4423 20.2162C40.284 19.6205 39.972 19.0769 39.5376 18.6397C39.1032 18.2024 38.5615 17.887 37.9669 17.7249C35.7778 17.1362 27.0278 17.1362 27.0278 17.1362C27.0278 17.1362 18.2778 17.1362 16.0887 17.7249C15.494 17.887 14.9524 18.2024 14.5179 18.6397C14.0835 19.0769 13.7715 19.6205 13.6132 20.2162C13.0278 22.4149 13.0278 26.9999 13.0278 26.9999C13.0278 26.9999 13.0278 31.5849 13.6132 33.7835C13.7715 34.3792 14.0835 34.9228 14.5179 35.3601C14.9524 35.7973 15.494 36.1128 16.0887 36.2749C18.2778 36.8635 27.0278 36.8635 27.0278 36.8635C27.0278 36.8635 35.7778 36.8635 37.9669 36.2749C38.5615 36.1128 39.1032 35.7973 39.5376 35.3601C39.972 34.9228 40.284 34.3792 40.4423 33.7835C41.0278 31.5849 41.0278 26.9999 41.0278 26.9999C41.0278 26.9999 41.0278 22.4149 40.4423 20.2162Z" fill="#FF0302"/>
<path d="M24.1642 31.1632V22.8364L31.4824 26.9998L24.1642 31.1632Z" fill="#FEFEFE"/>
</g>
<defs>
<clipPath id="clip0_241_949">
<rect width="28" height="28" fill="white" transform="translate(13 13)"/>
</clipPath>
</defs>
</svg>
