<svg width="28" height="25" viewBox="0 0 28 25" fill="none" xmlns="http://www.w3.org/2000/svg">
<path fill-rule="evenodd" clip-rule="evenodd" d="M27.955 15.814V15.596C25.331 14.197 23.907 12.143 23.907 9.17005C23.907 6.76605 24.975 4.66705 26.932 3.31305L27.021 3.26905C25.731 1.69605 23.996 0.123047 21.327 0.123047C19.459 0.123047 17.902 1.91505 15.322 1.91505C13.276 1.91505 12.43 0.210047 10.206 0.210047C5.58005 0.210047 0.998047 4.27505 0.998047 9.56405C0.998047 12.362 1.93205 16.69 4.02305 20.449C5.53605 23.203 7.40405 24.995 9.49505 24.995C11.007 24.995 12.786 23.64 14.922 23.64C16.79 23.64 18.526 24.865 20.215 24.865C24.264 24.865 28 19.707 28 16.255C28 16.077 27.955 15.946 27.955 15.814Z" fill="#CCCCCC"/>
</svg>
