<svg width="32" height="32" viewBox="0 0 32 32" fill="none" xmlns="http://www.w3.org/2000/svg">
<path d="M31.647 12.6667H16V19.3333H24.6483C23.3034 22.8288 19.9696 25.3333 16 25.3333C10.8454 25.3333 6.66667 21.1546 6.66667 16C6.66667 10.8453 10.8454 6.66667 16 6.66667C17.8691 6.66667 19.5919 7.24089 21.0514 8.18758C21.2747 8.33276 21.5052 8.46908 21.7151 8.63208L26.5646 4.00545L26.4552 3.92131C23.6493 1.48942 20.0047 0 16 0C7.16341 0 0 7.16341 0 16C0 24.8365 7.16341 32 16 32C24.1569 32 30.8739 25.8917 31.8614 18.0024C31.9447 17.3469 32 16.6782 32 16C32 14.8562 31.8751 13.7424 31.647 12.6667Z" fill="url(#paint0_linear_152_1835)"/>
<defs>
<linearGradient id="paint0_linear_152_1835" x1="0" y1="16" x2="32" y2="16" gradientUnits="userSpaceOnUse">
<stop stop-color="white" stop-opacity="0.2"/>
<stop offset="1" stop-color="white" stop-opacity="0"/>
</linearGradient>
</defs>
</svg>
