<svg width="209" height="48" viewBox="0 0 209 48" fill="none" xmlns="http://www.w3.org/2000/svg">
<path d="M62.7045 19.875H66.3295V30H68.0795V19.875H71.7102V18.3636H62.7045V19.875ZM73.3879 30H75.0868V21.2727H73.3879V30ZM74.2459 19.9261C74.8311 19.9261 75.3197 19.4716 75.3197 18.9148C75.3197 18.358 74.8311 17.8977 74.2459 17.8977C73.655 17.8977 73.172 18.358 73.172 18.9148C73.172 19.4716 73.655 19.9261 74.2459 19.9261ZM80.8724 30.1761C82.9349 30.1761 84.2702 28.9375 84.4577 27.2386H82.8042C82.5883 28.1818 81.8554 28.7386 80.8838 28.7386C79.4463 28.7386 78.5202 27.5398 78.5202 25.6364C78.5202 23.767 79.4633 22.5909 80.8838 22.5909C81.9633 22.5909 82.6224 23.2727 82.8042 24.0909H84.4577C84.2758 22.3295 82.8383 21.1591 80.8554 21.1591C78.3952 21.1591 76.8042 23.0114 76.8042 25.6761C76.8042 28.3068 78.3383 30.1761 80.8724 30.1761ZM86.0984 30H87.7973V26.9034L88.6439 26.0568L91.6098 30H93.695L89.9223 25.017L93.4564 21.2727H91.4223L87.945 24.9659H87.7973V18.3636H86.0984V30ZM98.2307 30.1761C100.134 30.1761 101.481 29.2386 101.867 27.8182L100.259 27.5284C99.9522 28.3523 99.2136 28.7727 98.2477 28.7727C96.7932 28.7727 95.8159 27.8295 95.7704 26.1477H101.975V25.5455C101.975 22.392 100.089 21.1591 98.1113 21.1591C95.6795 21.1591 94.0772 23.0114 94.0772 25.6932C94.0772 28.4034 95.6568 30.1761 98.2307 30.1761ZM95.7761 24.875C95.8443 23.6364 96.742 22.5625 98.1227 22.5625C99.4409 22.5625 100.305 23.5398 100.31 24.875H95.7761ZM107.758 21.2727H105.968V19.1818H104.269V21.2727H102.991V22.6364H104.269V27.7898C104.263 29.375 105.474 30.142 106.815 30.1136C107.354 30.108 107.718 30.0057 107.917 29.9318L107.61 28.5284C107.496 28.5511 107.286 28.6023 107.013 28.6023C106.462 28.6023 105.968 28.4205 105.968 27.4375V22.6364H107.758V21.2727ZM117.883 30H119.247L119.758 26.8864H121.434L121.656 25.5227H119.98L120.423 22.8409H122.11L122.332 21.4773H120.644L121.156 18.3636H119.792L119.281 21.4773H116.554L117.065 18.3636H115.701L115.19 21.4773H113.514L113.292 22.8409H114.968L114.525 25.5227H112.838L112.616 26.8864H114.304L113.792 30H115.156L115.667 26.8864H118.394L117.883 30ZM115.889 25.5227L116.332 22.8409H119.059L118.616 25.5227H115.889ZM123.508 30H131.167V28.4943H125.929V28.4091L128.241 25.9886C130.372 23.8352 130.98 22.8068 130.98 21.5057C130.98 19.6364 129.457 18.2045 127.264 18.2045C125.088 18.2045 123.497 19.6136 123.497 21.7386H125.173C125.167 20.4886 125.974 19.6705 127.23 19.6705C128.412 19.6705 129.309 20.3977 129.309 21.5568C129.309 22.5852 128.696 23.3239 127.446 24.6477L123.508 28.7273V30ZM137.196 30.1932C139.883 30.1932 141.457 28 141.457 24.1875C141.457 20.4034 139.861 18.2045 137.196 18.2045C134.525 18.2045 132.934 20.3977 132.929 24.1875C132.929 27.9943 134.503 30.1875 137.196 30.1932ZM137.196 28.6761C135.622 28.6761 134.673 27.0966 134.673 24.1875C134.679 21.2898 135.628 19.6932 137.196 19.6932C138.758 19.6932 139.713 21.2898 139.713 24.1875C139.713 27.0966 138.764 28.6761 137.196 28.6761ZM143.297 30H150.956V28.4943H145.717V28.4091L148.03 25.9886C150.16 23.8352 150.768 22.8068 150.768 21.5057C150.768 19.6364 149.246 18.2045 147.052 18.2045C144.876 18.2045 143.285 19.6136 143.285 21.7386H144.962C144.956 20.4886 145.763 19.6705 147.018 19.6705C148.2 19.6705 149.098 20.3977 149.098 21.5568C149.098 22.5852 148.484 23.3239 147.234 24.6477L143.297 28.7273V30ZM156.984 30.1932C159.672 30.1932 161.246 28 161.246 24.1875C161.246 20.4034 159.649 18.2045 156.984 18.2045C154.314 18.2045 152.723 20.3977 152.717 24.1875C152.717 27.9943 154.291 30.1875 156.984 30.1932ZM156.984 28.6761C155.411 28.6761 154.462 27.0966 154.462 24.1875C154.467 21.2898 155.416 19.6932 156.984 19.6932C158.547 19.6932 159.502 21.2898 159.502 24.1875C159.502 27.0966 158.553 28.6761 156.984 28.6761ZM168.25 23.4489H163.091V24.9205H168.25V23.4489ZM174.248 30.1591C176.668 30.1591 178.378 28.7841 178.39 26.8977C178.378 25.4318 177.35 24.1989 176.049 23.9659V23.8977C177.179 23.625 177.946 22.5625 177.958 21.3068C177.946 19.5284 176.378 18.2045 174.248 18.2045C172.094 18.2045 170.526 19.5284 170.537 21.3068C170.526 22.5568 171.293 23.625 172.446 23.8977V23.9659C171.123 24.1989 170.094 25.4318 170.105 26.8977C170.094 28.7841 171.804 30.1591 174.248 30.1591ZM174.248 28.7216C172.793 28.7216 171.873 27.9489 171.884 26.7841C171.873 25.5739 172.873 24.7102 174.248 24.7102C175.6 24.7102 176.6 25.5739 176.611 26.7841C176.6 27.9489 175.685 28.7216 174.248 28.7216ZM174.248 23.3068C173.071 23.3068 172.236 22.5625 172.248 21.4545C172.236 20.3636 173.043 19.642 174.248 19.642C175.429 19.642 176.236 20.3636 176.248 21.4545C176.236 22.5625 175.407 23.3068 174.248 23.3068ZM184.312 30.1591C186.743 30.1818 188.357 28.4318 188.351 26.1989C188.357 23.9716 186.738 22.375 184.721 22.375C183.493 22.375 182.431 22.9659 181.834 23.9489H181.749C181.755 21.3068 182.755 19.7386 184.459 19.7386C185.579 19.7386 186.283 20.4205 186.522 21.3864H188.255C187.988 19.5455 186.539 18.2045 184.459 18.2045C181.755 18.2045 180.067 20.5284 180.067 24.5739C180.062 28.858 182.243 30.142 184.312 30.1591ZM184.306 28.6818C182.954 28.6818 181.965 27.5455 181.965 26.2386C181.971 24.9375 183.005 23.8011 184.346 23.8011C185.675 23.8011 186.652 24.875 186.647 26.2216C186.652 27.5966 185.635 28.6818 184.306 28.6818ZM194.114 18.2045C191.671 18.1818 190.074 19.9375 190.074 22.142C190.08 24.3636 191.688 25.9659 193.705 25.9659C194.938 25.9659 195.995 25.3636 196.592 24.3864H196.682C196.677 27.0625 195.671 28.625 193.967 28.625C192.853 28.625 192.137 27.9432 191.91 26.9489H190.177C190.432 28.8295 191.887 30.1591 193.967 30.1591C196.671 30.1591 198.364 27.8352 198.364 23.7614C198.359 19.5114 196.188 18.2216 194.114 18.2045ZM194.12 19.6818C195.467 19.6818 196.461 20.8239 196.461 22.1023C196.467 23.3977 195.415 24.5341 194.086 24.5341C192.751 24.5341 191.785 23.4659 191.779 22.1193C191.779 20.767 192.785 19.6818 194.12 19.6818ZM200.32 30H202.156L207.218 19.9205V18.3636H199.525V19.8693H205.4V19.9545L200.32 30Z" fill="white"/>
<circle cx="24" cy="24" r="24" fill="#6932F9"/>
<path d="M25.7142 18.054L29.9464 22.2861L22.2856 29.9468L18.0535 25.7147L25.7142 18.054ZM22.8883 31.1656L31.1651 22.8888C31.3348 22.7192 31.4196 22.5183 31.4196 22.2861C31.4196 22.054 31.3348 21.8531 31.1651 21.6835L26.3169 16.8352C26.1562 16.6745 25.9553 16.5942 25.7142 16.5942C25.4731 16.5942 25.2723 16.6745 25.1115 16.8352L16.8348 25.112C16.6651 25.2817 16.5803 25.4826 16.5803 25.7147C16.5803 25.9468 16.6651 26.1477 16.8348 26.3174L21.683 31.1656C21.8437 31.3263 22.0446 31.4067 22.2856 31.4067C22.5267 31.4067 22.7276 31.3263 22.8883 31.1656ZM34.7946 22.6343L22.6473 34.7951C22.3169 35.1254 21.9129 35.2906 21.4352 35.2906C20.9575 35.2906 20.5535 35.1254 20.2231 34.7951L18.5356 33.1076C19.0356 32.6076 19.2856 32.0004 19.2856 31.2861C19.2856 30.5718 19.0356 29.9647 18.5356 29.4647C18.0356 28.9647 17.4285 28.7147 16.7142 28.7147C15.9999 28.7147 15.3928 28.9647 14.8928 29.4647L13.2187 27.7772C12.8883 27.4468 12.7231 27.0428 12.7231 26.5652C12.7231 26.0875 12.8883 25.6835 13.2187 25.3531L25.366 13.2192C25.6964 12.8888 26.1004 12.7236 26.5781 12.7236C27.0557 12.7236 27.4598 12.8888 27.7901 13.2192L29.4642 14.8933C28.9642 15.3933 28.7142 16.0004 28.7142 16.7147C28.7142 17.429 28.9642 18.0361 29.4642 18.5361C29.9642 19.0361 30.5714 19.2861 31.2856 19.2861C31.9999 19.2861 32.6071 19.0361 33.1071 18.5361L34.7946 20.2102C35.1249 20.5406 35.2901 20.9446 35.2901 21.4223C35.2901 21.9 35.1249 22.304 34.7946 22.6343Z" fill="white"/>
</svg>
