<svg width="113" height="114" viewBox="0 0 113 114" fill="none" xmlns="http://www.w3.org/2000/svg">
<g filter="url(#filter0_d_1_2144)">
<path d="M84 12.5H47C37.0589 12.5 29 20.5589 29 30.5V67.5H66C75.9411 67.5 84 59.4411 84 49.5V12.5Z" fill="url(#paint0_linear_1_2144)" shape-rendering="crispEdges"/>
<path d="M84 12.5H47C37.0589 12.5 29 20.5589 29 30.5V67.5H66C75.9411 67.5 84 59.4411 84 49.5V12.5Z" fill="url(#paint1_linear_1_2144)" shape-rendering="crispEdges"/>
<path d="M57.2 47.3C57.3833 47.1167 57.4793 46.8834 57.488 46.6C57.496 46.3167 57.4083 46.0834 57.225 45.9L52.325 41H63.5C63.7833 41 64.021 40.904 64.213 40.712C64.4043 40.5207 64.5 40.2834 64.5 40C64.5 39.7167 64.4043 39.479 64.213 39.287C64.021 39.0957 63.7833 39 63.5 39H52.325L57.225 34.1C57.4083 33.9167 57.496 33.6834 57.488 33.4C57.4793 33.1167 57.3833 32.8834 57.2 32.7C57.0167 32.5167 56.7833 32.425 56.5 32.425C56.2167 32.425 55.9833 32.5167 55.8 32.7L49.2 39.3C49.1 39.3834 49.029 39.4874 48.987 39.612C48.9457 39.7374 48.925 39.8667 48.925 40C48.925 40.1334 48.9457 40.2584 48.987 40.375C49.029 40.4917 49.1 40.6 49.2 40.7L55.8 47.3C55.9833 47.4834 56.2167 47.575 56.5 47.575C56.7833 47.575 57.0167 47.4834 57.2 47.3Z" fill="white"/>
</g>
<defs>
<filter id="filter0_d_1_2144" x="0.162506" y="0.625738" width="112.675" height="112.675" filterUnits="userSpaceOnUse" color-interpolation-filters="sRGB">
<feFlood flood-opacity="0" result="BackgroundImageFix"/>
<feColorMatrix in="SourceAlpha" type="matrix" values="0 0 0 0 0 0 0 0 0 0 0 0 0 0 0 0 0 0 127 0" result="hardAlpha"/>
<feOffset dy="16.9632"/>
<feGaussianBlur stdDeviation="14.4187"/>
<feComposite in2="hardAlpha" operator="out"/>
<feColorMatrix type="matrix" values="0 0 0 0 0.639216 0 0 0 0 0.411765 0 0 0 0 0.984314 0 0 0 0.31 0"/>
<feBlend mode="normal" in2="BackgroundImageFix" result="effect1_dropShadow_1_2144"/>
<feBlend mode="normal" in="SourceGraphic" in2="effect1_dropShadow_1_2144" result="shape"/>
</filter>
<linearGradient id="paint0_linear_1_2144" x1="29" y1="27.598" x2="85.3302" y2="30.0139" gradientUnits="userSpaceOnUse">
<stop stop-color="#D74037"/>
<stop offset="0.36833" stop-color="#E94A68"/>
<stop offset="0.806207" stop-color="#D735AC"/>
</linearGradient>
<linearGradient id="paint1_linear_1_2144" x1="62.3678" y1="93.2066" x2="4.24177" y2="46.243" gradientUnits="userSpaceOnUse">
<stop stop-color="#9358F7"/>
<stop offset="0.259732" stop-color="#7B78F2"/>
<stop offset="0.500607" stop-color="#6197EE"/>
<stop offset="0.766547" stop-color="#45B5E9"/>
<stop offset="1" stop-color="#10D7E2"/>
</linearGradient>
</defs>
</svg>
