<svg width="113" height="114" viewBox="0 0 113 114" fill="none" xmlns="http://www.w3.org/2000/svg">
<g filter="url(#filter0_d_1_2148)">
<path d="M55.8 47.3C55.6167 47.1167 55.5207 46.8834 55.512 46.6C55.504 46.3167 55.5917 46.0834 55.775 45.9L60.675 41H49.5C49.2167 41 48.979 40.904 48.787 40.712C48.5957 40.5207 48.5 40.2834 48.5 40C48.5 39.7167 48.5957 39.479 48.787 39.287C48.979 39.0957 49.2167 39 49.5 39H60.675L55.775 34.1C55.5917 33.9167 55.504 33.6834 55.512 33.4C55.5207 33.1167 55.6167 32.8834 55.8 32.7C55.9833 32.5167 56.2167 32.425 56.5 32.425C56.7833 32.425 57.0167 32.5167 57.2 32.7L63.8 39.3C63.9 39.3834 63.971 39.4874 64.013 39.612C64.0543 39.7374 64.075 39.8667 64.075 40C64.075 40.1334 64.0543 40.2584 64.013 40.375C63.971 40.4917 63.9 40.6 63.8 40.7L57.2 47.3C57.0167 47.4834 56.7833 47.575 56.5 47.575C56.2167 47.575 55.9833 47.4834 55.8 47.3Z" fill="white"/>
<path d="M29.5 13H66C75.665 13 83.5 20.835 83.5 30.5V67H47C37.335 67 29.5 59.165 29.5 49.5V13Z" stroke="url(#paint0_linear_1_2148)" shape-rendering="crispEdges"/>
<path d="M29.5 13H66C75.665 13 83.5 20.835 83.5 30.5V67H47C37.335 67 29.5 59.165 29.5 49.5V13Z" stroke="url(#paint1_linear_1_2148)" shape-rendering="crispEdges"/>
</g>
<defs>
<filter id="filter0_d_1_2148" x="0.162506" y="0.625738" width="112.675" height="112.675" filterUnits="userSpaceOnUse" color-interpolation-filters="sRGB">
<feFlood flood-opacity="0" result="BackgroundImageFix"/>
<feColorMatrix in="SourceAlpha" type="matrix" values="0 0 0 0 0 0 0 0 0 0 0 0 0 0 0 0 0 0 127 0" result="hardAlpha"/>
<feOffset dy="16.9632"/>
<feGaussianBlur stdDeviation="14.4187"/>
<feComposite in2="hardAlpha" operator="out"/>
<feColorMatrix type="matrix" values="0 0 0 0 0.639216 0 0 0 0 0.411765 0 0 0 0 0.984314 0 0 0 0.31 0"/>
<feBlend mode="normal" in2="BackgroundImageFix" result="effect1_dropShadow_1_2148"/>
<feBlend mode="normal" in="SourceGraphic" in2="effect1_dropShadow_1_2148" result="shape"/>
</filter>
<linearGradient id="paint0_linear_1_2148" x1="84" y1="27.598" x2="27.6698" y2="30.0139" gradientUnits="userSpaceOnUse">
<stop stop-color="#D74037"/>
<stop offset="0.36833" stop-color="#E94A68"/>
<stop offset="0.806207" stop-color="#D735AC"/>
</linearGradient>
<linearGradient id="paint1_linear_1_2148" x1="50.6322" y1="93.2066" x2="108.758" y2="46.243" gradientUnits="userSpaceOnUse">
<stop stop-color="#9358F7"/>
<stop offset="0.259732" stop-color="#7B78F2"/>
<stop offset="0.500607" stop-color="#6197EE"/>
<stop offset="0.766547" stop-color="#45B5E9"/>
<stop offset="1" stop-color="#10D7E2"/>
</linearGradient>
</defs>
</svg>
