<svg width="25" height="24" viewBox="0 0 25 24" fill="none" xmlns="http://www.w3.org/2000/svg">
<path d="M19.7788 3C20.3092 3 20.8179 3.21071 21.193 3.58579C21.5681 3.96086 21.7788 4.46957 21.7788 5V19C21.7788 19.5304 21.5681 20.0391 21.193 20.4142C20.8179 20.7893 20.3092 21 19.7788 21H5.77881C5.24838 21 4.73967 20.7893 4.36459 20.4142C3.98952 20.0391 3.77881 19.5304 3.77881 19V5C3.77881 4.46957 3.98952 3.96086 4.36459 3.58579C4.73967 3.21071 5.24838 3 5.77881 3H19.7788ZM19.2788 18.5V13.2C19.2788 12.3354 18.9353 11.5062 18.324 10.8948C17.7126 10.2835 16.8834 9.94 16.0188 9.94C15.1688 9.94 14.1788 10.46 13.6988 11.24V10.13H10.9088V18.5H13.6988V13.57C13.6988 12.8 14.3188 12.17 15.0888 12.17C15.4601 12.17 15.8162 12.3175 16.0788 12.5801C16.3413 12.8426 16.4888 13.1987 16.4888 13.57V18.5H19.2788ZM7.65881 8.56C8.10437 8.56 8.53169 8.383 8.84675 8.06794C9.16181 7.75288 9.33881 7.32556 9.33881 6.88C9.33881 5.95 8.58881 5.19 7.65881 5.19C7.21059 5.19 6.78073 5.36805 6.4638 5.68499C6.14686 6.00193 5.96881 6.43178 5.96881 6.88C5.96881 7.81 6.72881 8.56 7.65881 8.56ZM9.04881 18.5V10.13H6.27881V18.5H9.04881Z" fill="#F4F5F6"/>
</svg>
