<svg width="237" height="30" viewBox="0 0 237 30" fill="none" xmlns="http://www.w3.org/2000/svg">
<circle cx="12" cy="15" r="12" fill="#94D842"/>
<circle cx="12" cy="15" r="12" fill="url(#paint0_linear_1_2294)"/>
<path d="M8 15L10.8 18L16 12" stroke="white" stroke-width="2" stroke-linecap="round" stroke-linejoin="round"/>
<path d="M41.51 22.147C40.488 22.147 39.564 21.972 38.738 21.622C37.926 21.272 37.282 20.768 36.806 20.11C36.33 19.452 36.085 18.675 36.071 17.779H39.221C39.263 18.381 39.473 18.857 39.851 19.207C40.243 19.557 40.775 19.732 41.447 19.732C42.133 19.732 42.672 19.571 43.064 19.249C43.456 18.913 43.652 18.479 43.652 17.947C43.652 17.513 43.519 17.156 43.253 16.876C42.987 16.596 42.651 16.379 42.245 16.225C41.853 16.057 41.307 15.875 40.607 15.679C39.655 15.399 38.878 15.126 38.276 14.86C37.688 14.58 37.177 14.167 36.743 13.621C36.323 13.061 36.113 12.319 36.113 11.395C36.113 10.527 36.33 9.771 36.764 9.127C37.198 8.483 37.807 7.993 38.591 7.657C39.375 7.307 40.271 7.132 41.279 7.132C42.791 7.132 44.016 7.503 44.954 8.245C45.906 8.973 46.431 9.995 46.529 11.311H43.295C43.267 10.807 43.05 10.394 42.644 10.072C42.252 9.736 41.727 9.568 41.069 9.568C40.495 9.568 40.033 9.715 39.683 10.009C39.347 10.303 39.179 10.73 39.179 11.29C39.179 11.682 39.305 12.011 39.557 12.277C39.823 12.529 40.145 12.739 40.523 12.907C40.915 13.061 41.461 13.243 42.161 13.453C43.113 13.733 43.89 14.013 44.492 14.293C45.094 14.573 45.612 14.993 46.046 15.553C46.48 16.113 46.697 16.848 46.697 17.758C46.697 18.542 46.494 19.27 46.088 19.942C45.682 20.614 45.087 21.153 44.303 21.559C43.519 21.951 42.588 22.147 41.51 22.147ZM55.7979 10.198C56.6799 10.198 57.4639 10.394 58.1499 10.786C58.8359 11.164 59.3679 11.731 59.7459 12.487C60.1379 13.229 60.3339 14.125 60.3339 15.175V22H57.3939V15.574C57.3939 14.65 57.1629 13.943 56.7009 13.453C56.2389 12.949 55.6089 12.697 54.8109 12.697C53.9989 12.697 53.3549 12.949 52.8789 13.453C52.4169 13.943 52.1859 14.65 52.1859 15.574V22H49.2459V6.46H52.1859V11.815C52.5639 11.311 53.0679 10.919 53.6979 10.639C54.3279 10.345 55.0279 10.198 55.7979 10.198ZM68.2957 22.189C67.1757 22.189 66.1677 21.944 65.2717 21.454C64.3757 20.95 63.6687 20.243 63.1507 19.333C62.6467 18.423 62.3947 17.373 62.3947 16.183C62.3947 14.993 62.6537 13.943 63.1717 13.033C63.7037 12.123 64.4247 11.423 65.3347 10.933C66.2447 10.429 67.2597 10.177 68.3797 10.177C69.4997 10.177 70.5147 10.429 71.4247 10.933C72.3347 11.423 73.0487 12.123 73.5667 13.033C74.0987 13.943 74.3647 14.993 74.3647 16.183C74.3647 17.373 74.0917 18.423 73.5457 19.333C73.0137 20.243 72.2857 20.95 71.3617 21.454C70.4517 21.944 69.4297 22.189 68.2957 22.189ZM68.2957 19.627C68.8277 19.627 69.3247 19.501 69.7867 19.249C70.2627 18.983 70.6407 18.591 70.9207 18.073C71.2007 17.555 71.3407 16.925 71.3407 16.183C71.3407 15.077 71.0467 14.23 70.4587 13.642C69.8847 13.04 69.1777 12.739 68.3377 12.739C67.4977 12.739 66.7907 13.04 66.2167 13.642C65.6567 14.23 65.3767 15.077 65.3767 16.183C65.3767 17.289 65.6497 18.143 66.1957 18.745C66.7557 19.333 67.4557 19.627 68.2957 19.627ZM92.6493 10.366L89.2473 22H86.0763L83.9553 13.873L81.8343 22H78.6423L75.2193 10.366H78.2013L80.2593 19.228L82.4853 10.366H85.5933L87.7773 19.207L89.8353 10.366H92.6493ZM104.41 22.189C103.29 22.189 102.282 21.944 101.386 21.454C100.49 20.95 99.7829 20.243 99.2649 19.333C98.7609 18.423 98.5089 17.373 98.5089 16.183C98.5089 14.993 98.7679 13.943 99.2859 13.033C99.8179 12.123 100.539 11.423 101.449 10.933C102.359 10.429 103.374 10.177 104.494 10.177C105.614 10.177 106.629 10.429 107.539 10.933C108.449 11.423 109.163 12.123 109.681 13.033C110.213 13.943 110.479 14.993 110.479 16.183C110.479 17.373 110.206 18.423 109.66 19.333C109.128 20.243 108.4 20.95 107.476 21.454C106.566 21.944 105.544 22.189 104.41 22.189ZM104.41 19.627C104.942 19.627 105.439 19.501 105.901 19.249C106.377 18.983 106.755 18.591 107.035 18.073C107.315 17.555 107.455 16.925 107.455 16.183C107.455 15.077 107.161 14.23 106.573 13.642C105.999 13.04 105.292 12.739 104.452 12.739C103.612 12.739 102.905 13.04 102.331 13.642C101.771 14.23 101.491 15.077 101.491 16.183C101.491 17.289 101.764 18.143 102.31 18.745C102.87 19.333 103.57 19.627 104.41 19.627ZM117.97 12.781H115.933V22H112.951V12.781H111.628V10.366H112.951V9.778C112.951 8.35 113.357 7.3 114.169 6.628C114.981 5.956 116.206 5.641 117.844 5.683V8.161C117.13 8.147 116.633 8.266 116.353 8.518C116.073 8.77 115.933 9.225 115.933 9.883V10.366H117.97V12.781ZM125.209 12.781H123.172V22H120.19V12.781H118.867V10.366H120.19V9.778C120.19 8.35 120.596 7.3 121.408 6.628C122.22 5.956 123.445 5.641 125.083 5.683V8.161C124.369 8.147 123.872 8.266 123.592 8.518C123.312 8.77 123.172 9.225 123.172 9.883V10.366H125.209V12.781ZM143.248 10.366L136.045 27.502H132.916L135.436 21.706L130.774 10.366H134.071L137.074 18.493L140.119 10.366H143.248ZM149.999 22.189C148.879 22.189 147.871 21.944 146.975 21.454C146.079 20.95 145.372 20.243 144.854 19.333C144.35 18.423 144.098 17.373 144.098 16.183C144.098 14.993 144.357 13.943 144.875 13.033C145.407 12.123 146.128 11.423 147.038 10.933C147.948 10.429 148.963 10.177 150.083 10.177C151.203 10.177 152.218 10.429 153.128 10.933C154.038 11.423 154.752 12.123 155.27 13.033C155.802 13.943 156.068 14.993 156.068 16.183C156.068 17.373 155.795 18.423 155.249 19.333C154.717 20.243 153.989 20.95 153.065 21.454C152.155 21.944 151.133 22.189 149.999 22.189ZM149.999 19.627C150.531 19.627 151.028 19.501 151.49 19.249C151.966 18.983 152.344 18.591 152.624 18.073C152.904 17.555 153.044 16.925 153.044 16.183C153.044 15.077 152.75 14.23 152.162 13.642C151.588 13.04 150.881 12.739 150.041 12.739C149.201 12.739 148.494 13.04 147.92 13.642C147.36 14.23 147.08 15.077 147.08 16.183C147.08 17.289 147.353 18.143 147.899 18.745C148.459 19.333 149.159 19.627 149.999 19.627ZM169.207 10.366V22H166.246V20.53C165.868 21.034 165.371 21.433 164.755 21.727C164.153 22.007 163.495 22.147 162.781 22.147C161.871 22.147 161.066 21.958 160.366 21.58C159.666 21.188 159.113 20.621 158.707 19.879C158.315 19.123 158.119 18.227 158.119 17.191V10.366H161.059V16.771C161.059 17.695 161.29 18.409 161.752 18.913C162.214 19.403 162.844 19.648 163.642 19.648C164.454 19.648 165.091 19.403 165.553 18.913C166.015 18.409 166.246 17.695 166.246 16.771V10.366H169.207ZM175.048 12.172C175.426 11.556 175.916 11.073 176.518 10.723C177.134 10.373 177.834 10.198 178.618 10.198V13.285H177.841C176.917 13.285 176.217 13.502 175.741 13.936C175.279 14.37 175.048 15.126 175.048 16.204V22H172.108V10.366H175.048V12.172ZM190.054 22.189C189.102 22.189 188.248 22.021 187.492 21.685C186.736 21.335 186.134 20.866 185.686 20.278C185.252 19.69 185.014 19.039 184.972 18.325H187.933C187.989 18.773 188.206 19.144 188.584 19.438C188.976 19.732 189.459 19.879 190.033 19.879C190.593 19.879 191.027 19.767 191.335 19.543C191.657 19.319 191.818 19.032 191.818 18.682C191.818 18.304 191.622 18.024 191.23 17.842C190.852 17.646 190.243 17.436 189.403 17.212C188.535 17.002 187.821 16.785 187.261 16.561C186.715 16.337 186.239 15.994 185.833 15.532C185.441 15.07 185.245 14.447 185.245 13.663C185.245 13.019 185.427 12.431 185.791 11.899C186.169 11.367 186.701 10.947 187.387 10.639C188.087 10.331 188.906 10.177 189.844 10.177C191.23 10.177 192.336 10.527 193.162 11.227C193.988 11.913 194.443 12.844 194.527 14.02H191.713C191.671 13.558 191.475 13.194 191.125 12.928C190.789 12.648 190.334 12.508 189.76 12.508C189.228 12.508 188.815 12.606 188.521 12.802C188.241 12.998 188.101 13.271 188.101 13.621C188.101 14.013 188.297 14.314 188.689 14.524C189.081 14.72 189.69 14.923 190.516 15.133C191.356 15.343 192.049 15.56 192.595 15.784C193.141 16.008 193.61 16.358 194.002 16.834C194.408 17.296 194.618 17.912 194.632 18.682C194.632 19.354 194.443 19.956 194.065 20.488C193.701 21.02 193.169 21.44 192.469 21.748C191.783 22.042 190.978 22.189 190.054 22.189ZM203.934 22L199.986 17.044V22H197.046V6.46H199.986V15.301L203.892 10.366H207.714L202.59 16.204L207.756 22H203.934ZM210.8 8.98C210.282 8.98 209.848 8.819 209.498 8.497C209.162 8.161 208.994 7.748 208.994 7.258C208.994 6.768 209.162 6.362 209.498 6.04C209.848 5.704 210.282 5.536 210.8 5.536C211.318 5.536 211.745 5.704 212.081 6.04C212.431 6.362 212.606 6.768 212.606 7.258C212.606 7.748 212.431 8.161 212.081 8.497C211.745 8.819 211.318 8.98 210.8 8.98ZM212.249 10.366V22H209.309V10.366H212.249ZM218.094 6.46V22H215.154V6.46H218.094ZM223.939 6.46V22H220.999V6.46H223.939ZM231.296 22.189C230.344 22.189 229.49 22.021 228.734 21.685C227.978 21.335 227.376 20.866 226.928 20.278C226.494 19.69 226.256 19.039 226.214 18.325H229.175C229.231 18.773 229.448 19.144 229.826 19.438C230.218 19.732 230.701 19.879 231.275 19.879C231.835 19.879 232.269 19.767 232.577 19.543C232.899 19.319 233.06 19.032 233.06 18.682C233.06 18.304 232.864 18.024 232.472 17.842C232.094 17.646 231.485 17.436 230.645 17.212C229.777 17.002 229.063 16.785 228.503 16.561C227.957 16.337 227.481 15.994 227.075 15.532C226.683 15.07 226.487 14.447 226.487 13.663C226.487 13.019 226.669 12.431 227.033 11.899C227.411 11.367 227.943 10.947 228.629 10.639C229.329 10.331 230.148 10.177 231.086 10.177C232.472 10.177 233.578 10.527 234.404 11.227C235.23 11.913 235.685 12.844 235.769 14.02H232.955C232.913 13.558 232.717 13.194 232.367 12.928C232.031 12.648 231.576 12.508 231.002 12.508C230.47 12.508 230.057 12.606 229.763 12.802C229.483 12.998 229.343 13.271 229.343 13.621C229.343 14.013 229.539 14.314 229.931 14.524C230.323 14.72 230.932 14.923 231.758 15.133C232.598 15.343 233.291 15.56 233.837 15.784C234.383 16.008 234.852 16.358 235.244 16.834C235.65 17.296 235.86 17.912 235.874 18.682C235.874 19.354 235.685 19.956 235.307 20.488C234.943 21.02 234.411 21.44 233.711 21.748C233.025 22.042 232.22 22.189 231.296 22.189Z" fill="white"/>
<defs>
<linearGradient id="paint0_linear_1_2294" x1="9.43952" y1="38.2174" x2="34.8036" y2="17.7242" gradientUnits="userSpaceOnUse">
<stop stop-color="#9358F7"/>
<stop offset="0.259732" stop-color="#7B78F2"/>
<stop offset="0.500607" stop-color="#6197EE"/>
<stop offset="0.766547" stop-color="#45B5E9"/>
<stop offset="1" stop-color="#10D7E2"/>
</linearGradient>
</defs>
</svg>
