<svg width="262" height="30" viewBox="0 0 262 30" fill="none" xmlns="http://www.w3.org/2000/svg">
<circle cx="12" cy="15" r="12" fill="#94D842"/>
<circle cx="12" cy="15" r="12" fill="url(#paint0_linear_1_2299)"/>
<path d="M8 15L10.8 18L16 12" stroke="white" stroke-width="2" stroke-linecap="round" stroke-linejoin="round"/>
<path d="M35.735 14.65C35.735 13.208 36.057 11.92 36.701 10.786C37.359 9.638 38.248 8.749 39.368 8.119C40.502 7.475 41.769 7.153 43.169 7.153C44.807 7.153 46.242 7.573 47.474 8.413C48.706 9.253 49.567 10.415 50.057 11.899H46.676C46.34 11.199 45.864 10.674 45.248 10.324C44.646 9.974 43.946 9.799 43.148 9.799C42.294 9.799 41.531 10.002 40.859 10.408C40.201 10.8 39.683 11.36 39.305 12.088C38.941 12.816 38.759 13.67 38.759 14.65C38.759 15.616 38.941 16.47 39.305 17.212C39.683 17.94 40.201 18.507 40.859 18.913C41.531 19.305 42.294 19.501 43.148 19.501C43.946 19.501 44.646 19.326 45.248 18.976C45.864 18.612 46.34 18.08 46.676 17.38H50.057C49.567 18.878 48.706 20.047 47.474 20.887C46.256 21.713 44.821 22.126 43.169 22.126C41.769 22.126 40.502 21.811 39.368 21.181C38.248 20.537 37.359 19.648 36.701 18.514C36.057 17.38 35.735 16.092 35.735 14.65ZM57.7341 22.189C56.6141 22.189 55.6061 21.944 54.7101 21.454C53.8141 20.95 53.1071 20.243 52.5891 19.333C52.0851 18.423 51.8331 17.373 51.8331 16.183C51.8331 14.993 52.0921 13.943 52.6101 13.033C53.1421 12.123 53.8631 11.423 54.7731 10.933C55.6831 10.429 56.6981 10.177 57.8181 10.177C58.9381 10.177 59.9531 10.429 60.8631 10.933C61.7731 11.423 62.4871 12.123 63.0051 13.033C63.5371 13.943 63.8031 14.993 63.8031 16.183C63.8031 17.373 63.5301 18.423 62.9841 19.333C62.4521 20.243 61.7241 20.95 60.8001 21.454C59.8901 21.944 58.8681 22.189 57.7341 22.189ZM57.7341 19.627C58.2661 19.627 58.7631 19.501 59.2251 19.249C59.7011 18.983 60.0791 18.591 60.3591 18.073C60.6391 17.555 60.7791 16.925 60.7791 16.183C60.7791 15.077 60.4851 14.23 59.8971 13.642C59.3231 13.04 58.6161 12.739 57.7761 12.739C56.9361 12.739 56.2291 13.04 55.6551 13.642C55.0951 14.23 54.8151 15.077 54.8151 16.183C54.8151 17.289 55.0881 18.143 55.6341 18.745C56.1941 19.333 56.8941 19.627 57.7341 19.627ZM72.4067 10.198C73.7927 10.198 74.9127 10.639 75.7667 11.521C76.6207 12.389 77.0477 13.607 77.0477 15.175V22H74.1077V15.574C74.1077 14.65 73.8767 13.943 73.4147 13.453C72.9527 12.949 72.3227 12.697 71.5247 12.697C70.7127 12.697 70.0687 12.949 69.5927 13.453C69.1307 13.943 68.8997 14.65 68.8997 15.574V22H65.9597V10.366H68.8997V11.815C69.2917 11.311 69.7887 10.919 70.3907 10.639C71.0067 10.345 71.6787 10.198 72.4067 10.198ZM86.2905 10.198C87.6765 10.198 88.7965 10.639 89.6505 11.521C90.5045 12.389 90.9315 13.607 90.9315 15.175V22H87.9915V15.574C87.9915 14.65 87.7605 13.943 87.2985 13.453C86.8365 12.949 86.2065 12.697 85.4085 12.697C84.5965 12.697 83.9525 12.949 83.4765 13.453C83.0145 13.943 82.7835 14.65 82.7835 15.574V22H79.8435V10.366H82.7835V11.815C83.1755 11.311 83.6725 10.919 84.2745 10.639C84.8905 10.345 85.5625 10.198 86.2905 10.198ZM104.542 15.931C104.542 16.351 104.514 16.729 104.458 17.065H95.9533C96.0233 17.905 96.3173 18.563 96.8353 19.039C97.3533 19.515 97.9903 19.753 98.7463 19.753C99.8383 19.753 100.615 19.284 101.077 18.346H104.248C103.912 19.466 103.268 20.39 102.316 21.118C101.364 21.832 100.195 22.189 98.8093 22.189C97.6893 22.189 96.6813 21.944 95.7853 21.454C94.9033 20.95 94.2103 20.243 93.7063 19.333C93.2163 18.423 92.9713 17.373 92.9713 16.183C92.9713 14.979 93.2163 13.922 93.7063 13.012C94.1963 12.102 94.8823 11.402 95.7643 10.912C96.6463 10.422 97.6613 10.177 98.8093 10.177C99.9153 10.177 100.902 10.415 101.77 10.891C102.652 11.367 103.331 12.046 103.807 12.928C104.297 13.796 104.542 14.797 104.542 15.931ZM101.497 15.091C101.483 14.335 101.21 13.733 100.678 13.285C100.146 12.823 99.4953 12.592 98.7253 12.592C97.9973 12.592 97.3813 12.816 96.8773 13.264C96.3873 13.698 96.0863 14.307 95.9743 15.091H101.497ZM105.932 16.183C105.932 14.979 106.177 13.929 106.667 13.033C107.157 12.123 107.836 11.423 108.704 10.933C109.572 10.429 110.566 10.177 111.686 10.177C113.128 10.177 114.318 10.541 115.256 11.269C116.208 11.983 116.845 12.991 117.167 14.293H113.996C113.828 13.789 113.541 13.397 113.135 13.117C112.743 12.823 112.253 12.676 111.665 12.676C110.825 12.676 110.16 12.984 109.67 13.6C109.18 14.202 108.935 15.063 108.935 16.183C108.935 17.289 109.18 18.15 109.67 18.766C110.16 19.368 110.825 19.669 111.665 19.669C112.855 19.669 113.632 19.137 113.996 18.073H117.167C116.845 19.333 116.208 20.334 115.256 21.076C114.304 21.818 113.114 22.189 111.686 22.189C110.566 22.189 109.572 21.944 108.704 21.454C107.836 20.95 107.157 20.25 106.667 19.354C106.177 18.444 105.932 17.387 105.932 16.183ZM122.744 12.781V18.409C122.744 18.801 122.835 19.088 123.017 19.27C123.213 19.438 123.535 19.522 123.983 19.522H125.348V22H123.5C121.022 22 119.783 20.796 119.783 18.388V12.781H118.397V10.366H119.783V7.489H122.744V10.366H125.348V12.781H122.744ZM148.595 10.366L145.193 22H142.022L139.901 13.873L137.78 22H134.588L131.165 10.366H134.147L136.205 19.228L138.431 10.366H141.539L143.723 19.207L145.781 10.366H148.595ZM151.676 8.98C151.158 8.98 150.724 8.819 150.374 8.497C150.038 8.161 149.87 7.748 149.87 7.258C149.87 6.768 150.038 6.362 150.374 6.04C150.724 5.704 151.158 5.536 151.676 5.536C152.194 5.536 152.621 5.704 152.957 6.04C153.307 6.362 153.482 6.768 153.482 7.258C153.482 7.748 153.307 8.161 152.957 8.497C152.621 8.819 152.194 8.98 151.676 8.98ZM153.125 10.366V22H150.185V10.366H153.125ZM159.453 12.781V18.409C159.453 18.801 159.544 19.088 159.726 19.27C159.922 19.438 160.244 19.522 160.692 19.522H162.057V22H160.209C157.731 22 156.492 20.796 156.492 18.388V12.781H155.106V10.366H156.492V7.489H159.453V10.366H162.057V12.781H159.453ZM170.724 10.198C171.606 10.198 172.39 10.394 173.076 10.786C173.762 11.164 174.294 11.731 174.672 12.487C175.064 13.229 175.26 14.125 175.26 15.175V22H172.32V15.574C172.32 14.65 172.089 13.943 171.627 13.453C171.165 12.949 170.535 12.697 169.737 12.697C168.925 12.697 168.281 12.949 167.805 13.453C167.343 13.943 167.112 14.65 167.112 15.574V22H164.172V6.46H167.112V11.815C167.49 11.311 167.994 10.919 168.624 10.639C169.254 10.345 169.954 10.198 170.724 10.198ZM185.999 12.046C186.377 11.514 186.895 11.073 187.553 10.723C188.225 10.359 188.988 10.177 189.842 10.177C190.836 10.177 191.732 10.422 192.53 10.912C193.342 11.402 193.979 12.102 194.441 13.012C194.917 13.908 195.155 14.951 195.155 16.141C195.155 17.331 194.917 18.388 194.441 19.312C193.979 20.222 193.342 20.929 192.53 21.433C191.732 21.937 190.836 22.189 189.842 22.189C188.988 22.189 188.232 22.014 187.574 21.664C186.93 21.314 186.405 20.873 185.999 20.341V27.544H183.059V10.366H185.999V12.046ZM192.152 16.141C192.152 15.441 192.005 14.839 191.711 14.335C191.431 13.817 191.053 13.425 190.577 13.159C190.115 12.893 189.611 12.76 189.065 12.76C188.533 12.76 188.029 12.9 187.553 13.18C187.091 13.446 186.713 13.838 186.419 14.356C186.139 14.874 185.999 15.483 185.999 16.183C185.999 16.883 186.139 17.492 186.419 18.01C186.713 18.528 187.091 18.927 187.553 19.207C188.029 19.473 188.533 19.606 189.065 19.606C189.611 19.606 190.115 19.466 190.577 19.186C191.053 18.906 191.431 18.507 191.711 17.989C192.005 17.471 192.152 16.855 192.152 16.141ZM200.232 6.46V22H197.292V6.46H200.232ZM202.38 16.141C202.38 14.965 202.611 13.922 203.073 13.012C203.55 12.102 204.187 11.402 204.985 10.912C205.797 10.422 206.7 10.177 207.694 10.177C208.562 10.177 209.318 10.352 209.962 10.702C210.62 11.052 211.145 11.493 211.537 12.025V10.366H214.498V22H211.537V20.299C211.159 20.845 210.634 21.3 209.962 21.664C209.304 22.014 208.541 22.189 207.673 22.189C206.693 22.189 205.797 21.937 204.985 21.433C204.187 20.929 203.55 20.222 203.073 19.312C202.611 18.388 202.38 17.331 202.38 16.141ZM211.537 16.183C211.537 15.469 211.397 14.86 211.117 14.356C210.837 13.838 210.459 13.446 209.983 13.18C209.507 12.9 208.996 12.76 208.45 12.76C207.904 12.76 207.4 12.893 206.938 13.159C206.476 13.425 206.098 13.817 205.804 14.335C205.524 14.839 205.384 15.441 205.384 16.141C205.384 16.841 205.524 17.457 205.804 17.989C206.098 18.507 206.476 18.906 206.938 19.186C207.414 19.466 207.918 19.606 208.45 19.606C208.996 19.606 209.507 19.473 209.983 19.207C210.459 18.927 210.837 18.535 211.117 18.031C211.397 17.513 211.537 16.897 211.537 16.183ZM228.499 10.366L221.296 27.502H218.167L220.687 21.706L216.025 10.366H219.322L222.325 18.493L225.37 10.366H228.499ZM240.899 15.931C240.899 16.351 240.871 16.729 240.815 17.065H232.31C232.38 17.905 232.674 18.563 233.192 19.039C233.71 19.515 234.347 19.753 235.103 19.753C236.195 19.753 236.972 19.284 237.434 18.346H240.605C240.269 19.466 239.625 20.39 238.673 21.118C237.721 21.832 236.552 22.189 235.166 22.189C234.046 22.189 233.038 21.944 232.142 21.454C231.26 20.95 230.567 20.243 230.063 19.333C229.573 18.423 229.328 17.373 229.328 16.183C229.328 14.979 229.573 13.922 230.063 13.012C230.553 12.102 231.239 11.402 232.121 10.912C233.003 10.422 234.018 10.177 235.166 10.177C236.272 10.177 237.259 10.415 238.127 10.891C239.009 11.367 239.688 12.046 240.164 12.928C240.654 13.796 240.899 14.797 240.899 15.931ZM237.854 15.091C237.84 14.335 237.567 13.733 237.035 13.285C236.503 12.823 235.852 12.592 235.082 12.592C234.354 12.592 233.738 12.816 233.234 13.264C232.744 13.698 232.443 14.307 232.331 15.091H237.854ZM245.985 12.172C246.363 11.556 246.853 11.073 247.455 10.723C248.071 10.373 248.771 10.198 249.555 10.198V13.285H248.778C247.854 13.285 247.154 13.502 246.678 13.936C246.216 14.37 245.985 15.126 245.985 16.204V22H243.045V10.366H245.985V12.172ZM255.987 22.189C255.035 22.189 254.181 22.021 253.425 21.685C252.669 21.335 252.067 20.866 251.619 20.278C251.185 19.69 250.947 19.039 250.905 18.325H253.866C253.922 18.773 254.139 19.144 254.517 19.438C254.909 19.732 255.392 19.879 255.966 19.879C256.526 19.879 256.96 19.767 257.268 19.543C257.59 19.319 257.751 19.032 257.751 18.682C257.751 18.304 257.555 18.024 257.163 17.842C256.785 17.646 256.176 17.436 255.336 17.212C254.468 17.002 253.754 16.785 253.194 16.561C252.648 16.337 252.172 15.994 251.766 15.532C251.374 15.07 251.178 14.447 251.178 13.663C251.178 13.019 251.36 12.431 251.724 11.899C252.102 11.367 252.634 10.947 253.32 10.639C254.02 10.331 254.839 10.177 255.777 10.177C257.163 10.177 258.269 10.527 259.095 11.227C259.921 11.913 260.376 12.844 260.46 14.02H257.646C257.604 13.558 257.408 13.194 257.058 12.928C256.722 12.648 256.267 12.508 255.693 12.508C255.161 12.508 254.748 12.606 254.454 12.802C254.174 12.998 254.034 13.271 254.034 13.621C254.034 14.013 254.23 14.314 254.622 14.524C255.014 14.72 255.623 14.923 256.449 15.133C257.289 15.343 257.982 15.56 258.528 15.784C259.074 16.008 259.543 16.358 259.935 16.834C260.341 17.296 260.551 17.912 260.565 18.682C260.565 19.354 260.376 19.956 259.998 20.488C259.634 21.02 259.102 21.44 258.402 21.748C257.716 22.042 256.911 22.189 255.987 22.189Z" fill="white"/>
<defs>
<linearGradient id="paint0_linear_1_2299" x1="9.43952" y1="38.2174" x2="34.8036" y2="17.7242" gradientUnits="userSpaceOnUse">
<stop stop-color="#9358F7"/>
<stop offset="0.259732" stop-color="#7B78F2"/>
<stop offset="0.500607" stop-color="#6197EE"/>
<stop offset="0.766547" stop-color="#45B5E9"/>
<stop offset="1" stop-color="#10D7E2"/>
</linearGradient>
</defs>
</svg>
