<svg width="106" height="30" viewBox="0 0 106 30" fill="none" xmlns="http://www.w3.org/2000/svg">
<circle cx="12" cy="15" r="12" fill="#94D842"/>
<circle cx="12" cy="15" r="12" fill="url(#paint0_linear_1_2304)"/>
<path d="M8 15L10.8 18L16 12" stroke="white" stroke-width="2" stroke-linecap="round" stroke-linejoin="round"/>
<path d="M46.655 11.752C46.319 11.136 45.857 10.667 45.269 10.345C44.681 10.023 43.995 9.862 43.211 9.862C42.343 9.862 41.573 10.058 40.901 10.45C40.229 10.842 39.704 11.402 39.326 12.13C38.948 12.858 38.759 13.698 38.759 14.65C38.759 15.63 38.948 16.484 39.326 17.212C39.718 17.94 40.257 18.5 40.943 18.892C41.629 19.284 42.427 19.48 43.337 19.48C44.457 19.48 45.374 19.186 46.088 18.598C46.802 17.996 47.271 17.163 47.495 16.099H42.455V13.852H50.393V16.414C50.197 17.436 49.777 18.381 49.133 19.249C48.489 20.117 47.656 20.817 46.634 21.349C45.626 21.867 44.492 22.126 43.232 22.126C41.818 22.126 40.537 21.811 39.389 21.181C38.255 20.537 37.359 19.648 36.701 18.514C36.057 17.38 35.735 16.092 35.735 14.65C35.735 13.208 36.057 11.92 36.701 10.786C37.359 9.638 38.255 8.749 39.389 8.119C40.537 7.475 41.811 7.153 43.211 7.153C44.863 7.153 46.298 7.559 47.516 8.371C48.734 9.169 49.574 10.296 50.036 11.752H46.655ZM57.7341 22.189C56.6141 22.189 55.6061 21.944 54.7101 21.454C53.8141 20.95 53.1071 20.243 52.5891 19.333C52.0851 18.423 51.8331 17.373 51.8331 16.183C51.8331 14.993 52.0921 13.943 52.6101 13.033C53.1421 12.123 53.8631 11.423 54.7731 10.933C55.6831 10.429 56.6981 10.177 57.8181 10.177C58.9381 10.177 59.9531 10.429 60.8631 10.933C61.7731 11.423 62.4871 12.123 63.0051 13.033C63.5371 13.943 63.8031 14.993 63.8031 16.183C63.8031 17.373 63.5301 18.423 62.9841 19.333C62.4521 20.243 61.7241 20.95 60.8001 21.454C59.8901 21.944 58.8681 22.189 57.7341 22.189ZM57.7341 19.627C58.2661 19.627 58.7631 19.501 59.2251 19.249C59.7011 18.983 60.0791 18.591 60.3591 18.073C60.6391 17.555 60.7791 16.925 60.7791 16.183C60.7791 15.077 60.4851 14.23 59.8971 13.642C59.3231 13.04 58.6161 12.739 57.7761 12.739C56.9361 12.739 56.2291 13.04 55.6551 13.642C55.0951 14.23 54.8151 15.077 54.8151 16.183C54.8151 17.289 55.0881 18.143 55.6341 18.745C56.1941 19.333 56.8941 19.627 57.7341 19.627ZM73.9036 12.046C74.2816 11.514 74.7996 11.073 75.4576 10.723C76.1296 10.359 76.8926 10.177 77.7466 10.177C78.7406 10.177 79.6366 10.422 80.4346 10.912C81.2466 11.402 81.8836 12.102 82.3456 13.012C82.8216 13.908 83.0596 14.951 83.0596 16.141C83.0596 17.331 82.8216 18.388 82.3456 19.312C81.8836 20.222 81.2466 20.929 80.4346 21.433C79.6366 21.937 78.7406 22.189 77.7466 22.189C76.8926 22.189 76.1366 22.014 75.4786 21.664C74.8346 21.314 74.3096 20.873 73.9036 20.341V27.544H70.9636V10.366H73.9036V12.046ZM80.0566 16.141C80.0566 15.441 79.9096 14.839 79.6156 14.335C79.3356 13.817 78.9576 13.425 78.4816 13.159C78.0196 12.893 77.5156 12.76 76.9696 12.76C76.4376 12.76 75.9336 12.9 75.4576 13.18C74.9956 13.446 74.6176 13.838 74.3236 14.356C74.0436 14.874 73.9036 15.483 73.9036 16.183C73.9036 16.883 74.0436 17.492 74.3236 18.01C74.6176 18.528 74.9956 18.927 75.4576 19.207C75.9336 19.473 76.4376 19.606 76.9696 19.606C77.5156 19.606 78.0196 19.466 78.4816 19.186C78.9576 18.906 79.3356 18.507 79.6156 17.989C79.9096 17.471 80.0566 16.855 80.0566 16.141ZM88.1361 12.172C88.5141 11.556 89.0041 11.073 89.6061 10.723C90.2221 10.373 90.9221 10.198 91.7061 10.198V13.285H90.9291C90.0051 13.285 89.3051 13.502 88.8291 13.936C88.3671 14.37 88.1361 15.126 88.1361 16.204V22H85.1961V10.366H88.1361V12.172ZM98.8523 22.189C97.7323 22.189 96.7243 21.944 95.8283 21.454C94.9323 20.95 94.2253 20.243 93.7073 19.333C93.2033 18.423 92.9513 17.373 92.9513 16.183C92.9513 14.993 93.2103 13.943 93.7283 13.033C94.2603 12.123 94.9813 11.423 95.8913 10.933C96.8013 10.429 97.8163 10.177 98.9363 10.177C100.056 10.177 101.071 10.429 101.981 10.933C102.891 11.423 103.605 12.123 104.123 13.033C104.655 13.943 104.921 14.993 104.921 16.183C104.921 17.373 104.648 18.423 104.102 19.333C103.57 20.243 102.842 20.95 101.918 21.454C101.008 21.944 99.9863 22.189 98.8523 22.189ZM98.8523 19.627C99.3843 19.627 99.8813 19.501 100.343 19.249C100.819 18.983 101.197 18.591 101.477 18.073C101.757 17.555 101.897 16.925 101.897 16.183C101.897 15.077 101.603 14.23 101.015 13.642C100.441 13.04 99.7343 12.739 98.8943 12.739C98.0543 12.739 97.3473 13.04 96.7733 13.642C96.2133 14.23 95.9333 15.077 95.9333 16.183C95.9333 17.289 96.2063 18.143 96.7523 18.745C97.3123 19.333 98.0123 19.627 98.8523 19.627Z" fill="white"/>
<defs>
<linearGradient id="paint0_linear_1_2304" x1="9.43952" y1="38.2174" x2="34.8036" y2="17.7242" gradientUnits="userSpaceOnUse">
<stop stop-color="#9358F7"/>
<stop offset="0.259732" stop-color="#7B78F2"/>
<stop offset="0.500607" stop-color="#6197EE"/>
<stop offset="0.766547" stop-color="#45B5E9"/>
<stop offset="1" stop-color="#10D7E2"/>
</linearGradient>
</defs>
</svg>
