<svg width="25" height="24" viewBox="0 0 25 24" fill="none" xmlns="http://www.w3.org/2000/svg">
<path d="M22.3218 6.498C22.7788 8.28 22.7788 12 22.7788 12C22.7788 12 22.7788 15.72 22.3218 17.502C22.0678 18.487 21.3248 19.262 20.3838 19.524C18.6748 20 12.7788 20 12.7788 20C12.7788 20 6.88581 20 5.17381 19.524C4.22881 19.258 3.48681 18.484 3.23581 17.502C2.77881 15.72 2.77881 12 2.77881 12C2.77881 12 2.77881 8.28 3.23581 6.498C3.48981 5.513 4.23281 4.738 5.17381 4.476C6.88581 4 12.7788 4 12.7788 4C12.7788 4 18.6748 4 20.3838 4.476C21.3288 4.742 22.0708 5.516 22.3218 6.498ZM10.7788 15.5L16.7788 12L10.7788 8.5V15.5Z" fill="white"/>
</svg>
