<svg width="25" height="24" viewBox="0 0 25 24" fill="none" xmlns="http://www.w3.org/2000/svg">
<path fill-rule="evenodd" clip-rule="evenodd" d="M8.87256 2H16.1851C19.55 2 22.2788 4.72878 22.2788 8.09375V15.4062C22.2788 18.7712 19.55 21.5 16.1851 21.5H8.87256C5.50759 21.5 2.77881 18.7712 2.77881 15.4062V8.09375C2.77881 4.72878 5.50759 2 8.87256 2ZM16.1851 19.6719C18.5372 19.6719 20.4507 17.7584 20.4507 15.4062V8.09375C20.4507 5.74156 18.5372 3.82812 16.1851 3.82812H8.87256C6.52037 3.82812 4.60693 5.74156 4.60693 8.09375V15.4062C4.60693 17.7584 6.52037 19.6719 8.87256 19.6719H16.1851Z" fill="white"/>
<path fill-rule="evenodd" clip-rule="evenodd" d="M7.65381 11.75C7.65381 9.05778 9.83659 6.875 12.5288 6.875C15.221 6.875 17.4038 9.05778 17.4038 11.75C17.4038 14.4422 15.221 16.625 12.5288 16.625C9.83659 16.625 7.65381 14.4422 7.65381 11.75ZM9.48193 11.75C9.48193 13.4294 10.8494 14.7969 12.5288 14.7969C14.2082 14.7969 15.5757 13.4294 15.5757 11.75C15.5757 10.0693 14.2082 8.70312 12.5288 8.70312C10.8494 8.70312 9.48193 10.0693 9.48193 11.75Z" fill="white"/>
<circle cx="17.7693" cy="6.50934" r="0.649594" fill="white"/>
</svg>
