<svg width="25" height="24" viewBox="0 0 25 24" fill="none" xmlns="http://www.w3.org/2000/svg">
<path d="M22.9327 4.93855C22.1832 5.26731 21.3846 5.48522 20.552 5.59103C21.4085 5.07963 22.0623 4.27599 22.3696 3.30735C21.571 3.78348 20.6893 4.1198 19.7496 4.30748C18.9913 3.50007 17.9106 3 16.7316 3C14.4441 3 12.6025 4.85667 12.6025 7.1328C12.6025 7.4603 12.6303 7.7752 12.6983 8.07499C9.26331 7.90746 6.22386 6.26114 4.18202 3.75325C3.82555 4.37172 3.61645 5.07962 3.61645 5.84169C3.61645 7.27262 4.35333 8.54105 5.45171 9.2754C4.78789 9.26281 4.13667 9.07009 3.58496 8.76652C3.58496 8.77912 3.58496 8.79549 3.58496 8.81187C3.58496 10.8197 5.01715 12.4874 6.89523 12.8716C6.55891 12.9636 6.19237 13.0076 5.81196 13.0076C5.54744 13.0076 5.2804 12.9925 5.02974 12.9371C5.56508 14.5733 7.08417 15.7763 8.89046 15.8153C7.48473 16.915 5.69986 17.5775 3.76761 17.5775C3.42877 17.5775 3.10379 17.5624 2.77881 17.5208C4.60903 18.7011 6.77809 19.375 9.11719 19.375C16.7202 19.375 20.877 13.0769 20.877 7.61775C20.877 7.43511 20.8707 7.25876 20.8618 7.08367C21.6819 6.50173 22.3709 5.77493 22.9327 4.93855Z" fill="white"/>
</svg>
