<svg width="13" height="13" viewBox="0 0 13 13" fill="none" xmlns="http://www.w3.org/2000/svg">
<path d="M10.25 9.0814C9.77525 9.0814 9.347 9.2659 9.02225 9.5629L4.56875 6.96565C4.60325 6.82465 4.625 6.67765 4.625 6.52765C4.625 6.37765 4.60325 6.2314 4.56875 6.0904L8.975 3.51865C9.31997 3.84369 9.77602 4.02477 10.25 4.0249C11.2843 4.0249 12.125 3.18415 12.125 2.1499C12.125 1.11565 11.2843 0.274902 10.25 0.274902C9.21575 0.274902 8.375 1.11565 8.375 2.1499C8.375 2.2999 8.39675 2.4469 8.43125 2.58715L4.025 5.1589C3.67982 4.83419 3.22391 4.65316 2.75 4.65265C1.71575 4.65265 0.875 5.4934 0.875 6.52765C0.875 7.5619 1.71575 8.40265 2.75 8.40265C3.22398 8.40252 3.68003 8.22144 4.025 7.8964L8.4785 10.4937C8.4457 10.6277 8.42883 10.7652 8.42825 10.9032C8.4284 11.2632 8.53531 11.6152 8.73546 11.9146C8.93561 12.2139 9.22002 12.4472 9.55273 12.5849C9.88544 12.7227 10.2515 12.7587 10.6047 12.6884C10.9579 12.6181 11.2823 12.4447 11.5369 12.19C11.7915 11.9354 11.9649 11.611 12.0352 11.2578C12.1055 10.9047 12.0695 10.5386 11.9318 10.2059C11.794 9.87317 11.5608 9.58876 11.2614 9.38861C10.9621 9.18846 10.6101 9.08155 10.25 9.0814Z" fill="white"/>
</svg>
